<svg xmlns="http://www.w3.org/2000/svg" xmlns:xlink="http://www.w3.org/1999/xlink" contentStyleType="text/css" data-diagram-type="CLASS" height="483px" preserveAspectRatio="none" style="width:1528px;height:483px;background:#FFFFFF;" version="1.1" viewBox="0 0 1528 483" width="1528px" zoomAndPan="magnify"><title>Strichliste database schema</title><defs/><g><text fill="#000000" font-family="Verdana" font-size="22" font-weight="bold" lengthAdjust="spacing" textLength="351.4414" x="584.2243" y="35.4209">Strichliste database schema</text><!--cluster strichliste--><g class="cluster" data-entity="strichliste" data-source-line="5" data-uid="ent0002" id="cluster_strichliste"><rect fill="#FFFFFF" height="419" rx="2.5" ry="2.5" style="stroke:#000000;stroke-width:1;" width="1510" x="12.89" y="58.6094"/><text fill="#000000" font-family="Verdana" font-size="14" font-weight="bold" lengthAdjust="spacing" textLength="100.9395" x="717.4203" y="73.6045">STRICHLISTE</text></g><!--class users--><g class="entity" data-entity="users" data-source-line="9" data-uid="ent0003" id="entity_users"><rect fill="#FFFFFF" height="97.1563" rx="2.5" ry="2.5" style="stroke:#000000;stroke-width:1;" width="306.2044" x="36.89" y="97.6094"/><ellipse cx="165.6397" cy="117.7422" fill="#FFA500" rx="9" ry="9" style="stroke:#000000;stroke-width:1;"/><path d="M166.4834,124.4922 L164.0303,124.4922 L164.0303,114.2422 L160.8897,114.2422 L160.8897,112.1016 L169.624,112.1016 L169.624,114.2422 L166.4834,114.2422 L166.4834,124.4922 Z " fill="#000000"/><text fill="#000000" font-family="Verdana" font-size="12" font-style="italic" lengthAdjust="spacing" textLength="45.2051" x="181.1397" y="113.748">&#171;table&#187;</text><text fill="#000000" font-family="Verdana" font-size="14" font-weight="bold" lengthAdjust="spacing" textLength="36.1006" x="185.6919" y="129.5732">User</text><line style="stroke:#000000;stroke-width:1;" x1="37.89" x2="342.0944" y1="137.875" y2="137.875"/><path d="M50.3067,145.3385 C48.6967,145.3385 47.39,146.6452 47.39,148.2552 C47.39,148.4419 47.39,148.6285 47.425,148.8035 L43.89,152.3385 L43.89,154.6719 L47.39,154.6719 L47.39,152.3385 L49.7233,152.3385 L49.7233,151.1719 L49.7583,151.1369 C49.9333,151.1719 50.12,151.1719 50.3067,151.1719 C51.9167,151.1719 53.2233,149.8652 53.2233,148.2552 C53.2233,146.6452 51.9167,145.3385 50.3067,145.3385 M50.89,146.5052 C51.5317,146.5052 52.0567,147.0302 52.0567,147.6719 C52.0567,148.3135 51.5317,148.8385 50.89,148.8385 C50.2483,148.8385 49.7233,148.3135 49.7233,147.6719 C49.7233,147.0302 50.2483,146.5052 50.89,146.5052" fill="#DAA520"/><text fill="#000000" font-family="Verdana" font-size="14" lengthAdjust="spacing" textLength="4.4502" x="54.2233" y="154.8701">&#160;</text><text fill="#000000" font-family="Verdana" font-size="14" font-weight="bold" lengthAdjust="spacing" textLength="14.8203" x="58.6735" y="154.8701">id</text><text fill="#000000" font-family="Verdana" font-size="14" lengthAdjust="spacing" textLength="116.6416" x="73.4938" y="154.8701">: integer not null</text><path d="M48.5567,162.8021 C46.62,162.8021 45.0567,164.3654 45.0567,166.3021 C45.0567,168.2388 46.62,169.8021 48.5567,169.8021 C50.4933,169.8021 52.0567,168.2388 52.0567,166.3021 C52.0567,164.3654 50.4933,162.8021 48.5567,162.8021" fill="#FFFFFF"/><text fill="#000000" font-family="Verdana" font-size="14" lengthAdjust="spacing" textLength="278.4209" x="58.6735" y="171.167">nickname: varchar(255) not null unique</text><path d="M48.5567,179.099 C46.62,179.099 45.0567,180.6623 45.0567,182.599 C45.0567,184.5356 46.62,186.099 48.5567,186.099 C50.4933,186.099 52.0567,184.5356 52.0567,182.599 C52.0567,180.6623 50.4933,179.099 48.5567,179.099" fill="#FFFFFF"/><text fill="#000000" font-family="Verdana" font-size="14" lengthAdjust="spacing" textLength="164.6162" x="58.6735" y="187.4639">money: integer not null</text></g><!--class user_card_number_map--><g class="entity" data-entity="user_card_number_map" data-source-line="9" data-uid="ent0004" id="entity_user_card_number_map"><rect fill="#FFFFFF" height="80.8594" rx="2.5" ry="2.5" style="stroke:#000000;stroke-width:1;" width="330.4925" x="36.89" y="328.6094"/><ellipse cx="113.9658" cy="348.7422" fill="#FFA500" rx="9" ry="9" style="stroke:#000000;stroke-width:1;"/><path d="M114.8096,355.4922 L112.3565,355.4922 L112.3565,345.2422 L109.2158,345.2422 L109.2158,343.1016 L117.9502,343.1016 L117.9502,345.2422 L114.8096,345.2422 L114.8096,355.4922 Z " fill="#000000"/><text fill="#000000" font-family="Verdana" font-size="12" font-style="italic" lengthAdjust="spacing" textLength="45.2051" x="193.2837" y="344.748">&#171;table&#187;</text><text fill="#000000" font-family="Verdana" font-size="14" font-weight="bold" lengthAdjust="spacing" textLength="168.8408" x="131.4658" y="360.5732">UserCardNumberMap</text><line style="stroke:#000000;stroke-width:1;" x1="37.89" x2="366.3825" y1="368.875" y2="368.875"/><path d="M50.3067,376.3385 C48.6967,376.3385 47.39,377.6452 47.39,379.2552 C47.39,379.4419 47.39,379.6285 47.425,379.8035 L43.89,383.3385 L43.89,385.6719 L47.39,385.6719 L47.39,383.3385 L49.7233,383.3385 L49.7233,382.1719 L49.7583,382.1369 C49.9333,382.1719 50.12,382.1719 50.3067,382.1719 C51.9167,382.1719 53.2233,380.8652 53.2233,379.2552 C53.2233,377.6452 51.9167,376.3385 50.3067,376.3385 M50.89,377.5052 C51.5317,377.5052 52.0567,378.0302 52.0567,378.6719 C52.0567,379.3135 51.5317,379.8385 50.89,379.8385 C50.2483,379.8385 49.7233,379.3135 49.7233,378.6719 C49.7233,378.0302 50.2483,377.5052 50.89,377.5052" fill="#C0C0C0"/><text fill="#000000" font-family="Verdana" font-size="14" lengthAdjust="spacing" textLength="240.8574" x="58.6735" y="385.8701">user_id: integer not null pk unique</text><path d="M48.5567,393.8021 C46.62,393.8021 45.0567,395.3654 45.0567,397.3021 C45.0567,399.2388 46.62,400.8021 48.5567,400.8021 C50.4933,400.8021 52.0567,399.2388 52.0567,397.3021 C52.0567,395.3654 50.4933,393.8021 48.5567,393.8021" fill="#FFFFFF"/><text fill="#000000" font-family="Verdana" font-size="14" lengthAdjust="spacing" textLength="302.709" x="58.6735" y="402.167">card_number: varchar(255) not null unique</text></g><!--class transactions--><g class="entity" data-entity="transactions" data-source-line="9" data-uid="ent0005" id="entity_transactions"><rect fill="#FFFFFF" height="178.6406" rx="2.5" ry="2.5" style="stroke:#000000;stroke-width:1;" width="312.6097" x="417.89" y="279.6094"/><ellipse cx="519.7666" cy="299.7422" fill="#FFA500" rx="9" ry="9" style="stroke:#000000;stroke-width:1;"/><path d="M520.6104,306.4922 L518.1573,306.4922 L518.1573,296.2422 L515.0166,296.2422 L515.0166,294.1016 L523.751,294.1016 L523.751,296.2422 L520.6104,296.2422 L520.6104,306.4922 Z " fill="#000000"/><text fill="#000000" font-family="Verdana" font-size="12" font-style="italic" lengthAdjust="spacing" textLength="45.2051" x="565.3423" y="295.748">&#171;table&#187;</text><text fill="#000000" font-family="Verdana" font-size="14" font-weight="bold" lengthAdjust="spacing" textLength="101.3564" x="537.2666" y="311.5732">Transactions</text><line style="stroke:#000000;stroke-width:1;" x1="418.89" x2="729.4997" y1="319.875" y2="319.875"/><path d="M431.3067,327.3385 C429.6967,327.3385 428.39,328.6452 428.39,330.2552 C428.39,330.4419 428.39,330.6285 428.425,330.8035 L424.89,334.3385 L424.89,336.6719 L428.39,336.6719 L428.39,334.3385 L430.7233,334.3385 L430.7233,333.1719 L430.7583,333.1369 C430.9333,333.1719 431.12,333.1719 431.3067,333.1719 C432.9167,333.1719 434.2233,331.8652 434.2233,330.2552 C434.2233,328.6452 432.9167,327.3385 431.3067,327.3385 M431.89,328.5052 C432.5317,328.5052 433.0567,329.0302 433.0567,329.6719 C433.0567,330.3135 432.5317,330.8385 431.89,330.8385 C431.2483,330.8385 430.7233,330.3135 430.7233,329.6719 C430.7233,329.0302 431.2483,328.5052 431.89,328.5052" fill="#DAA520"/><text fill="#000000" font-family="Verdana" font-size="14" lengthAdjust="spacing" textLength="4.4502" x="435.2233" y="336.8701">&#160;</text><text fill="#000000" font-family="Verdana" font-size="14" font-weight="bold" lengthAdjust="spacing" textLength="14.8203" x="439.6735" y="336.8701">id</text><text fill="#000000" font-family="Verdana" font-size="14" lengthAdjust="spacing" textLength="116.6416" x="454.4938" y="336.8701">: integer not null</text><path d="M431.3067,343.6354 C429.6967,343.6354 428.39,344.9421 428.39,346.5521 C428.39,346.7388 428.39,346.9254 428.425,347.1004 L424.89,350.6354 L424.89,352.9688 L428.39,352.9688 L428.39,350.6354 L430.7233,350.6354 L430.7233,349.4688 L430.7583,349.4338 C430.9333,349.4688 431.12,349.4688 431.3067,349.4688 C432.9167,349.4688 434.2233,348.1621 434.2233,346.5521 C434.2233,344.9421 432.9167,343.6354 431.3067,343.6354 M431.89,344.8021 C432.5317,344.8021 433.0567,345.3271 433.0567,345.9688 C433.0567,346.6104 432.5317,347.1354 431.89,347.1354 C431.2483,347.1354 430.7233,346.6104 430.7233,345.9688 C430.7233,345.3271 431.2483,344.8021 431.89,344.8021" fill="#C0C0C0"/><text fill="#000000" font-family="Verdana" font-size="14" lengthAdjust="spacing" textLength="112.3828" x="439.6735" y="353.167">user_id: not null</text><path d="M429.5567,361.099 C427.62,361.099 426.0567,362.6623 426.0567,364.599 C426.0567,366.5356 427.62,368.099 429.5567,368.099 C431.4933,368.099 433.0567,366.5356 433.0567,364.599 C433.0567,362.6623 431.4933,361.099 429.5567,361.099" fill="#FFFFFF"/><text fill="#000000" font-family="Verdana" font-size="14" lengthAdjust="spacing" textLength="284.8262" x="439.6735" y="369.4639">is_undone: boolean not null default false</text><path d="M429.5567,377.3958 C427.62,377.3958 426.0567,378.9592 426.0567,380.8958 C426.0567,382.8325 427.62,384.3958 429.5567,384.3958 C431.4933,384.3958 433.0567,382.8325 433.0567,380.8958 C433.0567,378.9592 431.4933,377.3958 429.5567,377.3958" fill="#FFFFFF"/><text fill="#000000" font-family="Verdana" font-size="14" lengthAdjust="spacing" textLength="138.1611" x="439.6735" y="385.7607">t_type: text not null</text><path d="M429.5567,393.6927 C427.62,393.6927 426.0567,395.256 426.0567,397.1927 C426.0567,399.1294 427.62,400.6927 429.5567,400.6927 C431.4933,400.6927 433.0567,399.1294 433.0567,397.1927 C433.0567,395.256 431.4933,393.6927 429.5567,393.6927" fill="#FFFFFF"/><text fill="#000000" font-family="Verdana" font-size="14" lengthAdjust="spacing" textLength="141.5859" x="439.6735" y="402.0576">t_type_data: integer</text><path d="M429.5567,409.9896 C427.62,409.9896 426.0567,411.5529 426.0567,413.4896 C426.0567,415.4263 427.62,416.9896 429.5567,416.9896 C431.4933,416.9896 433.0567,415.4263 433.0567,413.4896 C433.0567,411.5529 431.4933,409.9896 429.5567,409.9896" fill="#FFFFFF"/><text fill="#000000" font-family="Verdana" font-size="14" lengthAdjust="spacing" textLength="164.6162" x="439.6735" y="418.3545">money: integer not null</text><path d="M429.5567,426.2865 C427.62,426.2865 426.0567,427.8498 426.0567,429.7865 C426.0567,431.7231 427.62,433.2865 429.5567,433.2865 C431.4933,433.2865 433.0567,431.7231 433.0567,429.7865 C433.0567,427.8498 431.4933,426.2865 429.5567,426.2865" fill="#FFFFFF"/><text fill="#000000" font-family="Verdana" font-size="14" lengthAdjust="spacing" textLength="178.1787" x="439.6735" y="434.6514">description: varchar(255)</text><path d="M429.5567,442.5833 C427.62,442.5833 426.0567,444.1467 426.0567,446.0833 C426.0567,448.02 427.62,449.5833 429.5567,449.5833 C431.4933,449.5833 433.0567,448.02 433.0567,446.0833 C433.0567,444.1467 431.4933,442.5833 429.5567,442.5833" fill="#FFFFFF"/><text fill="#000000" font-family="Verdana" font-size="14" lengthAdjust="spacing" textLength="173.6055" x="439.6735" y="450.9482">timestamp: date not null</text></g><!--class articles--><g class="entity" data-entity="articles" data-source-line="9" data-uid="ent0006" id="entity_articles"><rect fill="#FFFFFF" height="80.8594" rx="2.5" ry="2.5" style="stroke:#000000;stroke-width:1;" width="214.3431" x="993.89" y="328.6094"/><ellipse cx="1067.2334" cy="348.7422" fill="#FFA500" rx="9" ry="9" style="stroke:#000000;stroke-width:1;"/><path d="M1068.0772,355.4922 L1065.624,355.4922 L1065.624,345.2422 L1062.4834,345.2422 L1062.4834,343.1016 L1071.2178,343.1016 L1071.2178,345.2422 L1068.0772,345.2422 L1068.0772,355.4922 Z " fill="#000000"/><text fill="#000000" font-family="Verdana" font-size="12" font-style="italic" lengthAdjust="spacing" textLength="45.2051" x="1092.209" y="344.748">&#171;table&#187;</text><text fill="#000000" font-family="Verdana" font-size="14" font-weight="bold" lengthAdjust="spacing" textLength="60.1563" x="1084.7334" y="360.5732">Articles</text><line style="stroke:#000000;stroke-width:1;" x1="994.89" x2="1207.2331" y1="368.875" y2="368.875"/><path d="M1007.3067,376.3385 C1005.6967,376.3385 1004.39,377.6452 1004.39,379.2552 C1004.39,379.4419 1004.39,379.6285 1004.425,379.8035 L1000.89,383.3385 L1000.89,385.6719 L1004.39,385.6719 L1004.39,383.3385 L1006.7233,383.3385 L1006.7233,382.1719 L1006.7583,382.1369 C1006.9333,382.1719 1007.12,382.1719 1007.3067,382.1719 C1008.9167,382.1719 1010.2233,380.8652 1010.2233,379.2552 C1010.2233,377.6452 1008.9167,376.3385 1007.3067,376.3385 M1007.89,377.5052 C1008.5317,377.5052 1009.0567,378.0302 1009.0567,378.6719 C1009.0567,379.3135 1008.5317,379.8385 1007.89,379.8385 C1007.2483,379.8385 1006.7233,379.3135 1006.7233,378.6719 C1006.7233,378.0302 1007.2483,377.5052 1007.89,377.5052" fill="#DAA520"/><text fill="#000000" font-family="Verdana" font-size="14" lengthAdjust="spacing" textLength="4.4502" x="1011.2233" y="385.8701">&#160;</text><text fill="#000000" font-family="Verdana" font-size="14" font-weight="bold" lengthAdjust="spacing" textLength="14.8203" x="1015.6735" y="385.8701">id</text><text fill="#000000" font-family="Verdana" font-size="14" lengthAdjust="spacing" textLength="116.6416" x="1030.4938" y="385.8701">: integer not null</text><path d="M1005.5567,393.8021 C1003.62,393.8021 1002.0567,395.3654 1002.0567,397.3021 C1002.0567,399.2388 1003.62,400.8021 1005.5567,400.8021 C1007.4933,400.8021 1009.0567,399.2388 1009.0567,397.3021 C1009.0567,395.3654 1007.4933,393.8021 1005.5567,393.8021" fill="#FFFFFF"/><text fill="#000000" font-family="Verdana" font-size="14" lengthAdjust="spacing" textLength="186.5596" x="1015.6735" y="402.167">name: text not null unique</text></g><!--class article_barcodes--><g class="entity" data-entity="article_barcodes" data-source-line="9" data-uid="ent0007" id="entity_article_barcodes"><rect fill="#FFFFFF" height="80.8594" rx="2.5" ry="2.5" style="stroke:#000000;stroke-width:1;" width="306.1771" x="933.89" y="106.1094"/><ellipse cx="1020.9224" cy="126.2422" fill="#FFA500" rx="9" ry="9" style="stroke:#000000;stroke-width:1;"/><path d="M1021.7661,132.9922 L1019.313,132.9922 L1019.313,122.7422 L1016.1724,122.7422 L1016.1724,120.6016 L1024.9068,120.6016 L1024.9068,122.7422 L1021.7661,122.7422 L1021.7661,132.9922 Z " fill="#000000"/><text fill="#000000" font-family="Verdana" font-size="12" font-style="italic" lengthAdjust="spacing" textLength="45.2051" x="1078.126" y="122.248">&#171;table&#187;</text><text fill="#000000" font-family="Verdana" font-size="14" font-weight="bold" lengthAdjust="spacing" textLength="124.6123" x="1038.4224" y="138.0732">ArticleBarcodes</text><line style="stroke:#000000;stroke-width:1;" x1="934.89" x2="1239.0671" y1="146.375" y2="146.375"/><path d="M947.3067,153.8385 C945.6967,153.8385 944.39,155.1452 944.39,156.7552 C944.39,156.9419 944.39,157.1285 944.425,157.3035 L940.89,160.8385 L940.89,163.1719 L944.39,163.1719 L944.39,160.8385 L946.7233,160.8385 L946.7233,159.6719 L946.7583,159.6369 C946.9333,159.6719 947.12,159.6719 947.3067,159.6719 C948.9167,159.6719 950.2233,158.3652 950.2233,156.7552 C950.2233,155.1452 948.9167,153.8385 947.3067,153.8385 M947.89,155.0052 C948.5317,155.0052 949.0567,155.5302 949.0567,156.1719 C949.0567,156.8135 948.5317,157.3385 947.89,157.3385 C947.2483,157.3385 946.7233,156.8135 946.7233,156.1719 C946.7233,155.5302 947.2483,155.0052 947.89,155.0052" fill="#DAA520"/><text fill="#000000" font-family="Verdana" font-size="14" lengthAdjust="spacing" textLength="4.4502" x="951.2233" y="163.3701">&#160;</text><text fill="#000000" font-family="Verdana" font-size="14" font-weight="bold" lengthAdjust="spacing" textLength="131.5371" x="955.6735" y="163.3701">barcode_content</text><text fill="#000000" font-family="Verdana" font-size="14" lengthAdjust="spacing" textLength="146.8564" x="1087.2106" y="163.3701">: text not null unique</text><path d="M947.3067,170.1354 C945.6967,170.1354 944.39,171.4421 944.39,173.0521 C944.39,173.2388 944.39,173.4254 944.425,173.6004 L940.89,177.1354 L940.89,179.4688 L944.39,179.4688 L944.39,177.1354 L946.7233,177.1354 L946.7233,175.9688 L946.7583,175.9338 C946.9333,175.9688 947.12,175.9688 947.3067,175.9688 C948.9167,175.9688 950.2233,174.6621 950.2233,173.0521 C950.2233,171.4421 948.9167,170.1354 947.3067,170.1354 M947.89,171.3021 C948.5317,171.3021 949.0567,171.8271 949.0567,172.4688 C949.0567,173.1104 948.5317,173.6354 947.89,173.6354 C947.2483,173.6354 946.7233,173.1104 946.7233,172.4688 C946.7233,171.8271 947.2483,171.3021 947.89,171.3021" fill="#C0C0C0"/><text fill="#000000" font-family="Verdana" font-size="14" lengthAdjust="spacing" textLength="180.332" x="955.6735" y="179.667">article_id: integer not null</text></g><!--class article_tags--><g class="entity" data-entity="article_tags" data-source-line="9" data-uid="ent0008" id="entity_article_tags"><rect fill="#FFFFFF" height="80.8594" rx="2.5" ry="2.5" style="stroke:#000000;stroke-width:1;" width="161.8841" x="781.39" y="328.6094"/><ellipse cx="814.5092" cy="348.7422" fill="#FFA500" rx="9" ry="9" style="stroke:#000000;stroke-width:1;"/><path d="M815.3529,355.4922 L812.8998,355.4922 L812.8998,345.2422 L809.7592,345.2422 L809.7592,343.1016 L818.4936,343.1016 L818.4936,345.2422 L815.3529,345.2422 L815.3529,355.4922 Z " fill="#000000"/><text fill="#000000" font-family="Verdana" font-size="12" font-style="italic" lengthAdjust="spacing" textLength="45.2051" x="852.965" y="344.748">&#171;table&#187;</text><text fill="#000000" font-family="Verdana" font-size="14" font-weight="bold" lengthAdjust="spacing" textLength="89.1748" x="830.9801" y="360.5732">ArticleTags</text><line style="stroke:#000000;stroke-width:1;" x1="782.39" x2="942.2741" y1="368.875" y2="368.875"/><path d="M794.8067,376.3385 C793.1967,376.3385 791.89,377.6452 791.89,379.2552 C791.89,379.4419 791.89,379.6285 791.925,379.8035 L788.39,383.3385 L788.39,385.6719 L791.89,385.6719 L791.89,383.3385 L794.2233,383.3385 L794.2233,382.1719 L794.2583,382.1369 C794.4333,382.1719 794.62,382.1719 794.8067,382.1719 C796.4167,382.1719 797.7233,380.8652 797.7233,379.2552 C797.7233,377.6452 796.4167,376.3385 794.8067,376.3385 M795.39,377.5052 C796.0317,377.5052 796.5567,378.0302 796.5567,378.6719 C796.5567,379.3135 796.0317,379.8385 795.39,379.8385 C794.7483,379.8385 794.2233,379.3135 794.2233,378.6719 C794.2233,378.0302 794.7483,377.5052 795.39,377.5052" fill="#DAA520"/><text fill="#000000" font-family="Verdana" font-size="14" lengthAdjust="spacing" textLength="4.4502" x="798.7233" y="385.8701">&#160;</text><text fill="#000000" font-family="Verdana" font-size="14" font-weight="bold" lengthAdjust="spacing" textLength="14.8203" x="803.1735" y="385.8701">id</text><text fill="#000000" font-family="Verdana" font-size="14" lengthAdjust="spacing" textLength="116.6416" x="817.9938" y="385.8701">: integer not null</text><path d="M793.0567,393.8021 C791.12,393.8021 789.5567,395.3654 789.5567,397.3021 C789.5567,399.2388 791.12,400.8021 793.0567,400.8021 C794.9933,400.8021 796.5567,399.2388 796.5567,397.3021 C796.5567,395.3654 794.9933,393.8021 793.0567,393.8021" fill="#FFFFFF"/><text fill="#000000" font-family="Verdana" font-size="14" lengthAdjust="spacing" textLength="134.1006" x="803.1735" y="402.167">name: text not null</text></g><!--class article_tag_map--><g class="entity" data-entity="article_tag_map" data-source-line="9" data-uid="ent0009" id="entity_article_tag_map"><rect fill="#FFFFFF" height="80.8594" rx="2.5" ry="2.5" style="stroke:#000000;stroke-width:1;" width="208.1156" x="393.89" y="106.1094"/><ellipse cx="437.0767" cy="126.2422" fill="#FFA500" rx="9" ry="9" style="stroke:#000000;stroke-width:1;"/><path d="M437.9204,132.9922 L435.4673,132.9922 L435.4673,122.7422 L432.3267,122.7422 L432.3267,120.6016 L441.0611,120.6016 L441.0611,122.7422 L437.9204,122.7422 L437.9204,132.9922 Z " fill="#000000"/><text fill="#000000" font-family="Verdana" font-size="12" font-style="italic" lengthAdjust="spacing" textLength="45.2051" x="489.0952" y="122.248">&#171;table&#187;</text><text fill="#000000" font-family="Verdana" font-size="14" font-weight="bold" lengthAdjust="spacing" textLength="114.2422" x="454.5767" y="138.0732">ArticleTagMap</text><line style="stroke:#000000;stroke-width:1;" x1="394.89" x2="601.0056" y1="146.375" y2="146.375"/><path d="M407.3067,153.8385 C405.6967,153.8385 404.39,155.1452 404.39,156.7552 C404.39,156.9419 404.39,157.1285 404.425,157.3035 L400.89,160.8385 L400.89,163.1719 L404.39,163.1719 L404.39,160.8385 L406.7233,160.8385 L406.7233,159.6719 L406.7583,159.6369 C406.9333,159.6719 407.12,159.6719 407.3067,159.6719 C408.9167,159.6719 410.2233,158.3652 410.2233,156.7552 C410.2233,155.1452 408.9167,153.8385 407.3067,153.8385 M407.89,155.0052 C408.5317,155.0052 409.0567,155.5302 409.0567,156.1719 C409.0567,156.8135 408.5317,157.3385 407.89,157.3385 C407.2483,157.3385 406.7233,156.8135 406.7233,156.1719 C406.7233,155.5302 407.2483,155.0052 407.89,155.0052" fill="#C0C0C0"/><text fill="#000000" font-family="Verdana" font-size="14" lengthAdjust="spacing" textLength="159.373" x="415.6735" y="163.3701">tag_id: integer not null</text><path d="M407.3067,170.1354 C405.6967,170.1354 404.39,171.4421 404.39,173.0521 C404.39,173.2388 404.39,173.4254 404.425,173.6004 L400.89,177.1354 L400.89,179.4688 L404.39,179.4688 L404.39,177.1354 L406.7233,177.1354 L406.7233,175.9688 L406.7583,175.9338 C406.9333,175.9688 407.12,175.9688 407.3067,175.9688 C408.9167,175.9688 410.2233,174.6621 410.2233,173.0521 C410.2233,171.4421 408.9167,170.1354 407.3067,170.1354 M407.89,171.3021 C408.5317,171.3021 409.0567,171.8271 409.0567,172.4688 C409.0567,173.1104 408.5317,173.6354 407.89,173.6354 C407.2483,173.6354 406.7233,173.1104 406.7233,172.4688 C406.7233,171.8271 407.2483,171.3021 407.89,171.3021" fill="#C0C0C0"/><text fill="#000000" font-family="Verdana" font-size="14" lengthAdjust="spacing" textLength="180.332" x="415.6735" y="179.667">article_id: integer not null</text></g><!--class article_sounds--><g class="entity" data-entity="article_sounds" data-source-line="9" data-uid="ent0010" id="entity_article_sounds"><rect fill="#FFFFFF" height="97.1563" rx="2.5" ry="2.5" style="stroke:#000000;stroke-width:1;" width="161.8841" x="1306.39" y="320.1094"/><ellipse cx="1330.2222" cy="340.2422" fill="#FFA500" rx="9" ry="9" style="stroke:#000000;stroke-width:1;"/><path d="M1331.066,346.9922 L1328.6129,346.9922 L1328.6129,336.7422 L1325.4722,336.7422 L1325.4722,334.6016 L1334.2066,334.6016 L1334.2066,336.7422 L1331.066,336.7422 L1331.066,346.9922 Z " fill="#000000"/><text fill="#000000" font-family="Verdana" font-size="12" font-style="italic" lengthAdjust="spacing" textLength="45.2051" x="1376.9331" y="336.248">&#171;table&#187;</text><text fill="#000000" font-family="Verdana" font-size="14" font-weight="bold" lengthAdjust="spacing" textLength="109.8125" x="1344.6294" y="352.0732">ArticleSounds</text><line style="stroke:#000000;stroke-width:1;" x1="1307.39" x2="1467.2741" y1="360.375" y2="360.375"/><path d="M1319.8067,367.8385 C1318.1967,367.8385 1316.89,369.1452 1316.89,370.7552 C1316.89,370.9419 1316.89,371.1285 1316.925,371.3035 L1313.39,374.8385 L1313.39,377.1719 L1316.89,377.1719 L1316.89,374.8385 L1319.2233,374.8385 L1319.2233,373.6719 L1319.2583,373.6369 C1319.4333,373.6719 1319.62,373.6719 1319.8067,373.6719 C1321.4167,373.6719 1322.7233,372.3652 1322.7233,370.7552 C1322.7233,369.1452 1321.4167,367.8385 1319.8067,367.8385 M1320.39,369.0052 C1321.0317,369.0052 1321.5567,369.5302 1321.5567,370.1719 C1321.5567,370.8135 1321.0317,371.3385 1320.39,371.3385 C1319.7483,371.3385 1319.2233,370.8135 1319.2233,370.1719 C1319.2233,369.5302 1319.7483,369.0052 1320.39,369.0052" fill="#DAA520"/><text fill="#000000" font-family="Verdana" font-size="14" lengthAdjust="spacing" textLength="4.4502" x="1323.7233" y="377.3701">&#160;</text><text fill="#000000" font-family="Verdana" font-size="14" font-weight="bold" lengthAdjust="spacing" textLength="14.8203" x="1328.1735" y="377.3701">id</text><text fill="#000000" font-family="Verdana" font-size="14" lengthAdjust="spacing" textLength="116.6416" x="1342.9938" y="377.3701">: integer not null</text><path d="M1318.0567,385.3021 C1316.12,385.3021 1314.5567,386.8654 1314.5567,388.8021 C1314.5567,390.7388 1316.12,392.3021 1318.0567,392.3021 C1319.9933,392.3021 1321.5567,390.7388 1321.5567,388.8021 C1321.5567,386.8654 1319.9933,385.3021 1318.0567,385.3021" fill="#FFFFFF"/><text fill="#000000" font-family="Verdana" font-size="14" lengthAdjust="spacing" textLength="134.1006" x="1328.1735" y="393.667">name: text not null</text><path d="M1318.0567,401.599 C1316.12,401.599 1314.5567,403.1623 1314.5567,405.099 C1314.5567,407.0356 1316.12,408.599 1318.0567,408.599 C1319.9933,408.599 1321.5567,407.0356 1321.5567,405.099 C1321.5567,403.1623 1319.9933,401.599 1318.0567,401.599" fill="#FFFFFF"/><text fill="#000000" font-family="Verdana" font-size="14" lengthAdjust="spacing" textLength="126.2256" x="1328.1735" y="409.9639">path: text not null</text></g><!--class article_sounds_map--><g class="entity" data-entity="article_sounds_map" data-source-line="9" data-uid="ent0011" id="entity_article_sounds_map"><rect fill="#FFFFFF" height="80.8594" rx="2.5" ry="2.5" style="stroke:#000000;stroke-width:1;" width="208.1156" x="1290.89" y="106.1094"/><ellipse cx="1320.4962" cy="126.2422" fill="#FFA500" rx="9" ry="9" style="stroke:#000000;stroke-width:1;"/><path d="M1321.34,132.9922 L1318.8868,132.9922 L1318.8868,122.7422 L1315.7462,122.7422 L1315.7462,120.6016 L1324.4806,120.6016 L1324.4806,122.7422 L1321.34,122.7422 L1321.34,132.9922 Z " fill="#000000"/><text fill="#000000" font-family="Verdana" font-size="12" font-style="italic" lengthAdjust="spacing" textLength="45.2051" x="1385.1904" y="122.248">&#171;table&#187;</text><text fill="#000000" font-family="Verdana" font-size="14" font-weight="bold" lengthAdjust="spacing" textLength="143.2129" x="1336.1865" y="138.0732">ArticleSoundsMap</text><line style="stroke:#000000;stroke-width:1;" x1="1291.89" x2="1498.0056" y1="146.375" y2="146.375"/><path d="M1304.3067,153.8385 C1302.6967,153.8385 1301.39,155.1452 1301.39,156.7552 C1301.39,156.9419 1301.39,157.1285 1301.425,157.3035 L1297.89,160.8385 L1297.89,163.1719 L1301.39,163.1719 L1301.39,160.8385 L1303.7233,160.8385 L1303.7233,159.6719 L1303.7583,159.6369 C1303.9333,159.6719 1304.12,159.6719 1304.3067,159.6719 C1305.9167,159.6719 1307.2233,158.3652 1307.2233,156.7552 C1307.2233,155.1452 1305.9167,153.8385 1304.3067,153.8385 M1304.89,155.0052 C1305.5317,155.0052 1306.0567,155.5302 1306.0567,156.1719 C1306.0567,156.8135 1305.5317,157.3385 1304.89,157.3385 C1304.2483,157.3385 1303.7233,156.8135 1303.7233,156.1719 C1303.7233,155.5302 1304.2483,155.0052 1304.89,155.0052" fill="#C0C0C0"/><text fill="#000000" font-family="Verdana" font-size="14" lengthAdjust="spacing" textLength="178.9102" x="1312.6735" y="163.3701">sound_id: integer not null</text><path d="M1304.3067,170.1354 C1302.6967,170.1354 1301.39,171.4421 1301.39,173.0521 C1301.39,173.2388 1301.39,173.4254 1301.425,173.6004 L1297.89,177.1354 L1297.89,179.4688 L1301.39,179.4688 L1301.39,177.1354 L1303.7233,177.1354 L1303.7233,175.9688 L1303.7583,175.9338 C1303.9333,175.9688 1304.12,175.9688 1304.3067,175.9688 C1305.9167,175.9688 1307.2233,174.6621 1307.2233,173.0521 C1307.2233,171.4421 1305.9167,170.1354 1304.3067,170.1354 M1304.89,171.3021 C1305.5317,171.3021 1306.0567,171.8271 1306.0567,172.4688 C1306.0567,173.1104 1305.5317,173.6354 1304.89,173.6354 C1304.2483,173.6354 1303.7233,173.1104 1303.7233,172.4688 C1303.7233,171.8271 1304.2483,171.3021 1304.89,171.3021" fill="#C0C0C0"/><text fill="#000000" font-family="Verdana" font-size="14" lengthAdjust="spacing" textLength="180.332" x="1312.6735" y="179.667">article_id: integer not null</text></g><!--class article_cost_map--><g class="entity" data-entity="article_cost_map" data-source-line="9" data-uid="ent0012" id="entity_article_cost_map"><rect fill="#FFFFFF" height="97.1563" rx="2.5" ry="2.5" style="stroke:#000000;stroke-width:1;" width="230.2982" x="652.89" y="97.6094"/><ellipse cx="704.2183" cy="117.7422" fill="#FFA500" rx="9" ry="9" style="stroke:#000000;stroke-width:1;"/><path d="M705.062,124.4922 L702.6089,124.4922 L702.6089,114.2422 L699.4683,114.2422 L699.4683,112.1016 L708.2027,112.1016 L708.2027,114.2422 L705.062,114.2422 L705.062,124.4922 Z " fill="#000000"/><text fill="#000000" font-family="Verdana" font-size="12" font-style="italic" lengthAdjust="spacing" textLength="45.2051" x="759.1865" y="113.748">&#171;table&#187;</text><text fill="#000000" font-family="Verdana" font-size="14" font-weight="bold" lengthAdjust="spacing" textLength="120.1416" x="721.7183" y="129.5732">ArticleCostMap</text><line style="stroke:#000000;stroke-width:1;" x1="653.89" x2="882.1882" y1="137.875" y2="137.875"/><path d="M666.3067,145.3385 C664.6967,145.3385 663.39,146.6452 663.39,148.2552 C663.39,148.4419 663.39,148.6285 663.425,148.8035 L659.89,152.3385 L659.89,154.6719 L663.39,154.6719 L663.39,152.3385 L665.7233,152.3385 L665.7233,151.1719 L665.7583,151.1369 C665.9333,151.1719 666.12,151.1719 666.3067,151.1719 C667.9167,151.1719 669.2233,149.8652 669.2233,148.2552 C669.2233,146.6452 667.9167,145.3385 666.3067,145.3385 M666.89,146.5052 C667.5317,146.5052 668.0567,147.0302 668.0567,147.6719 C668.0567,148.3135 667.5317,148.8385 666.89,148.8385 C666.2483,148.8385 665.7233,148.3135 665.7233,147.6719 C665.7233,147.0302 666.2483,146.5052 666.89,146.5052" fill="#C0C0C0"/><text fill="#000000" font-family="Verdana" font-size="14" lengthAdjust="spacing" textLength="180.332" x="674.6735" y="154.8701">article_id: integer not null</text><path d="M664.5567,162.8021 C662.62,162.8021 661.0567,164.3654 661.0567,166.3021 C661.0567,168.2388 662.62,169.8021 664.5567,169.8021 C666.4933,169.8021 668.0567,168.2388 668.0567,166.3021 C668.0567,164.3654 666.4933,162.8021 664.5567,162.8021" fill="#FFFFFF"/><text fill="#000000" font-family="Verdana" font-size="14" lengthAdjust="spacing" textLength="145.6875" x="674.6735" y="171.167">cost: integer not null</text><path d="M664.5567,179.099 C662.62,179.099 661.0567,180.6623 661.0567,182.599 C661.0567,184.5356 662.62,186.099 664.5567,186.099 C666.4933,186.099 668.0567,184.5356 668.0567,182.599 C668.0567,180.6623 666.4933,179.099 664.5567,179.099" fill="#FFFFFF"/><text fill="#000000" font-family="Verdana" font-size="14" lengthAdjust="spacing" textLength="202.5146" x="674.6735" y="187.4639">effective_since: date not null</text></g><!--link users to user_card_number_map--><g class="link" data-entity-1="users" data-entity-2="user_card_number_map" data-source-line="91" data-uid="lnk13" id="link_users_user_card_number_map"><path codeLine="91" d="M343.89,149.6094 C365.67,149.6094 355.19,180.6394 342.89,198.6094 C301.35,259.2894 78.35,263.8694 36.89,324.6094 C22.85,345.1694 11,380.6094 35.89,380.6094" fill="none" id="users-user_card_number_map" style="stroke:#000000;stroke-width:1;"/><text fill="#000000" font-family="Verdana" font-size="13" lengthAdjust="spacing" textLength="52.1333" x="300.09" y="241.6763">FK_User</text></g><!--link users to transactions--><g class="link" data-entity-1="users" data-entity-2="transactions" data-source-line="92" data-uid="lnk14" id="link_users_transactions"><path codeLine="92" d="M343.89,149.6094 C351.4,149.6094 390.34,268.5494 392.89,275.6094 C404.34,307.3394 383.16,347.6094 416.89,347.6094" fill="none" id="users-transactions" style="stroke:#000000;stroke-width:1;"/><text fill="#000000" font-family="Verdana" font-size="13" lengthAdjust="spacing" textLength="52.1333" x="383.6" y="241.6763">FK_User</text></g><!--link article_barcodes to articles--><g class="link" data-entity-1="article_barcodes" data-entity-2="articles" data-source-line="94" data-uid="lnk15" id="link_article_barcodes_articles"><path codeLine="94" d="M1240.89,174.1094 C1248.01,174.1094 1244.21,184.4394 1239.89,190.1094 C1207.99,231.9794 1174.67,204.4694 1127.89,228.6094 C1062.78,262.2094 1027.95,259.7494 993.89,324.6094 C982.32,346.6494 968,380.6094 992.89,380.6094" fill="none" id="article_barcodes-articles" style="stroke:#000000;stroke-width:1;"/><text fill="#000000" font-family="Verdana" font-size="13" lengthAdjust="spacing" textLength="64.2065" x="1128.89" y="241.6763">FK_Article</text></g><!--link article_tag_map to article_tags--><g class="link" data-entity-1="article_tag_map" data-entity-2="article_tags" data-source-line="96" data-uid="lnk16" id="link_article_tag_map_article_tags"><path codeLine="96" d="M602.89,158.1094 C642.21,158.1094 588.99,216.9394 615.89,245.6094 C659.43,292.0094 710.49,231.0194 755.89,275.6094 C790.08,309.1894 732.47,380.6094 780.39,380.6094" fill="none" id="article_tag_map-article_tags" style="stroke:#000000;stroke-width:1;"/><text fill="#000000" font-family="Verdana" font-size="13" lengthAdjust="spacing" textLength="101.6387" x="616.89" y="241.6763">FK_Article_Tags</text></g><!--link article_tag_map to articles--><g class="link" data-entity-1="article_tag_map" data-entity-2="articles" data-source-line="97" data-uid="lnk17" id="link_article_tag_map_articles"><path codeLine="97" d="M602.89,174.1094 C618.45,174.1094 614.23,191.1694 627.89,198.6094 C644.9,207.8794 954.12,261.9894 967.89,275.6094 C1002,309.3394 944.92,380.6094 992.89,380.6094" fill="none" id="article_tag_map-articles" style="stroke:#000000;stroke-width:1;"/><text fill="#000000" font-family="Verdana" font-size="13" lengthAdjust="spacing" textLength="64.2065" x="848.16" y="241.6763">FK_Article</text></g><!--link article_sounds_map to article_sounds--><g class="link" data-entity-1="article_sounds_map" data-entity-2="article_sounds" data-source-line="99" data-uid="lnk18" id="link_article_sounds_map_article_sounds"><path codeLine="99" d="M1289.89,158.1094 C1275.66,158.1094 1284.18,177.5594 1290.89,190.1094 C1336.34,275.0994 1422.51,230.8094 1467.39,316.1094 C1478.98,338.1394 1493.28,372.1094 1468.39,372.1094" fill="none" id="article_sounds_map-article_sounds" style="stroke:#000000;stroke-width:1;"/><text fill="#000000" font-family="Verdana" font-size="13" lengthAdjust="spacing" textLength="118.4155" x="1355.18" y="241.6763">FK_Article_Sounds</text></g><!--link article_sounds_map to articles--><g class="link" data-entity-1="article_sounds_map" data-entity-2="articles" data-source-line="100" data-uid="lnk19" id="link_article_sounds_map_articles"><path codeLine="100" d="M1289.89,174.1094 C1275,174.1094 1257.31,215.1694 1250.89,228.6094 C1220.7,291.8594 1278.98,380.6094 1208.89,380.6094" fill="none" id="article_sounds_map-articles" style="stroke:#000000;stroke-width:1;"/><text fill="#000000" font-family="Verdana" font-size="13" lengthAdjust="spacing" textLength="64.2065" x="1251.89" y="241.6763">FK_Article</text></g><!--link article_cost_map to articles--><g class="link" data-entity-1="article_cost_map" data-entity-2="articles" data-source-line="102" data-uid="lnk20" id="link_article_cost_map_articles"><path codeLine="102" d="M883.89,149.6094 C908.34,149.6094 895.85,177.9294 908.89,198.6094 C931.89,235.0694 949.38,236.6694 967.89,275.6094 C988.49,318.9294 944.92,380.6094 992.89,380.6094" fill="none" id="article_cost_map-articles" style="stroke:#000000;stroke-width:1;"/><text fill="#000000" font-family="Verdana" font-size="13" lengthAdjust="spacing" textLength="64.2065" x="949.55" y="241.6763">FK_Article</text></g><!--SRC=[jPPTQzim58QlurznwfNHGBh2e3Sc1BgoZx8lQBBjqYZIII8YIwuaPmkb_tsoR3UsQoTPwNhJ-kZuEQzUdIFtnAumGKW5uJ9OSOQ0IMgtaA1TAMQ2u2JLYYBBDCAfeIwPd9rAak38FOfiEGnIGjTaYH3wS0Z452im7jyYjKGk1KucmGbAzeXgOYsP2snHKLhkP8JZ-SGlZ2_camORpcOZ-AuT7eVW2R2_oeRZxtylydC4LtSPIOZcqXNA8GVgfEkYoZ0OKoMKZbvzL8AXl5LiCdwznkraVE4N9b2lkm-vU8ASSh51tURvf7qWbvSbieBTBpWAzW0LzDUAMtJC11advngfqkm0tFddZ0-dLdEw4jnO14RSQH23K7HB60HLtuJJsUtDzQSlDzFP-t04eTcz5GxXFXYKdH3-CAZpXCpzDiNI8FSrv2mSHi2bnILgaCg2p8G81k1-gis5ajErRqMNkY6QheW-UtjvENpCXqpokmnRhoLAuhOR_n0qjLqJpRvboHprLv9MGcFgeh7quJXnSQ_Rbt3dLwHqwuTqtIsfHZoycRh8cPiBGwZbIffSdwq_7-jdItMFszp4cMJEkpndhfH08dVY62v89YmiY33jtTdORbF_ciK_jezVPCLvLzMq7dzsZJo6XcgUvZwq3MsNvGaQIv8qptF5iQSThhJbLA1tcLH_7-7mODUkPQisJEWyrRBMEwTQiKR9U5x5TasNLo_3CLLEWBJzPHuFl0BswUxGCoFBXXQRFpTr73UtNKRqLIm7hrQpO-RowC4MVyQEfygrV6FFfeYytAuREIcng-ESAPIrp2d4TVZZ5_wBGzVAs9OAwa8T6Wx1cnUYOnoHXek5-y-3RzpMkQJOES9ETEtxyyP_QgA8CpW_X_P2-sgFel9UX0W-V8xpJy9niFezt0LfKDgp7KKxhzhWwkhnHJslF8XkP3akKLHCI0_DJ_8JOfpF-txgY-dSTMuKLStQ9xR8VIgt68c3-1VJNFNvyv1_0G00]--></g></svg>