<svg xmlns="http://www.w3.org/2000/svg" xmlns:xlink="http://www.w3.org/1999/xlink" contentStyleType="text/css" data-diagram-type="CLASS" height="499px" preserveAspectRatio="none" style="width:2200px;height:499px;background:#FFFFFF;" version="1.1" viewBox="0 0 2200 499" width="2200px" zoomAndPan="magnify"><title>Strichliste database schema</title><defs/><g><text fill="#000000" font-family="Verdana" font-size="22" font-weight="bold" lengthAdjust="spacing" textLength="351.4414" x="920.0421" y="35.4209">Strichliste database schema</text><!--cluster strichliste--><g class="cluster" data-entity="strichliste" data-source-line="5" data-uid="ent0002" id="cluster_strichliste"><rect fill="#FFFFFF" height="435" rx="2.5" ry="2.5" style="stroke:#000000;stroke-width:1;" width="2154" x="12" y="58.6094"/><text fill="#000000" font-family="Verdana" font-size="14" font-weight="bold" lengthAdjust="spacing" textLength="100.9395" x="1038.5303" y="73.6045">STRICHLISTE</text></g><!--class users--><g class="entity" data-entity="users" data-source-line="9" data-uid="ent0003" id="entity_users"><rect fill="#FFFFFF" height="97.1563" rx="2.5" ry="2.5" style="stroke:#000000;stroke-width:1;" width="306.2044" x="184" y="376.6094"/><ellipse cx="312.7497" cy="396.7422" fill="#FFA500" rx="9" ry="9" style="stroke:#000000;stroke-width:1;"/><path d="M313.5934,403.4922 L311.1403,403.4922 L311.1403,393.2422 L307.9997,393.2422 L307.9997,391.1016 L316.734,391.1016 L316.734,393.2422 L313.5934,393.2422 L313.5934,403.4922 Z " fill="#000000"/><text fill="#000000" font-family="Verdana" font-size="12" font-style="italic" lengthAdjust="spacing" textLength="45.2051" x="328.2497" y="392.748">&#171;table&#187;</text><text fill="#000000" font-family="Verdana" font-size="14" font-weight="bold" lengthAdjust="spacing" textLength="36.1006" x="332.8019" y="408.5732">User</text><line style="stroke:#000000;stroke-width:1;" x1="185" x2="489.2044" y1="416.875" y2="416.875"/><path d="M197.4167,424.3385 C195.8067,424.3385 194.5,425.6452 194.5,427.2552 C194.5,427.4419 194.5,427.6285 194.535,427.8035 L191,431.3385 L191,433.6719 L194.5,433.6719 L194.5,431.3385 L196.8333,431.3385 L196.8333,430.1719 L196.8683,430.1369 C197.0433,430.1719 197.23,430.1719 197.4167,430.1719 C199.0267,430.1719 200.3333,428.8652 200.3333,427.2552 C200.3333,425.6452 199.0267,424.3385 197.4167,424.3385 M198,425.5052 C198.6417,425.5052 199.1667,426.0302 199.1667,426.6719 C199.1667,427.3135 198.6417,427.8385 198,427.8385 C197.3583,427.8385 196.8333,427.3135 196.8333,426.6719 C196.8333,426.0302 197.3583,425.5052 198,425.5052" fill="#DAA520"/><text fill="#000000" font-family="Verdana" font-size="14" lengthAdjust="spacing" textLength="4.4502" x="201.3333" y="433.8701">&#160;</text><text fill="#000000" font-family="Verdana" font-size="14" font-weight="bold" lengthAdjust="spacing" textLength="14.8203" x="205.7835" y="433.8701">id</text><text fill="#000000" font-family="Verdana" font-size="14" lengthAdjust="spacing" textLength="116.6416" x="220.6038" y="433.8701">: integer not null</text><path d="M195.6667,441.8021 C193.73,441.8021 192.1667,443.3654 192.1667,445.3021 C192.1667,447.2388 193.73,448.8021 195.6667,448.8021 C197.6033,448.8021 199.1667,447.2388 199.1667,445.3021 C199.1667,443.3654 197.6033,441.8021 195.6667,441.8021" fill="#FFFFFF"/><text fill="#000000" font-family="Verdana" font-size="14" lengthAdjust="spacing" textLength="278.4209" x="205.7835" y="450.167">nickname: varchar(255) not null unique</text><path d="M195.6667,458.099 C193.73,458.099 192.1667,459.6623 192.1667,461.599 C192.1667,463.5356 193.73,465.099 195.6667,465.099 C197.6033,465.099 199.1667,463.5356 199.1667,461.599 C199.1667,459.6623 197.6033,458.099 195.6667,458.099" fill="#FFFFFF"/><text fill="#000000" font-family="Verdana" font-size="14" lengthAdjust="spacing" textLength="164.6162" x="205.7835" y="466.4639">money: integer not null</text></g><!--class user_card_number_map--><g class="entity" data-entity="user_card_number_map" data-source-line="9" data-uid="ent0004" id="entity_user_card_number_map"><rect fill="#FFFFFF" height="80.8594" rx="2.5" ry="2.5" style="stroke:#000000;stroke-width:1;" width="330.4925" x="36" y="154.6094"/><ellipse cx="113.0758" cy="174.7422" fill="#FFA500" rx="9" ry="9" style="stroke:#000000;stroke-width:1;"/><path d="M113.9196,181.4922 L111.4665,181.4922 L111.4665,171.2422 L108.3258,171.2422 L108.3258,169.1016 L117.0602,169.1016 L117.0602,171.2422 L113.9196,171.2422 L113.9196,181.4922 Z " fill="#000000"/><text fill="#000000" font-family="Verdana" font-size="12" font-style="italic" lengthAdjust="spacing" textLength="45.2051" x="192.3937" y="170.748">&#171;table&#187;</text><text fill="#000000" font-family="Verdana" font-size="14" font-weight="bold" lengthAdjust="spacing" textLength="168.8408" x="130.5758" y="186.5732">UserCardNumberMap</text><line style="stroke:#000000;stroke-width:1;" x1="37" x2="365.4925" y1="194.875" y2="194.875"/><path d="M49.4167,202.3385 C47.8067,202.3385 46.5,203.6452 46.5,205.2552 C46.5,205.4419 46.5,205.6285 46.535,205.8035 L43,209.3385 L43,211.6719 L46.5,211.6719 L46.5,209.3385 L48.8333,209.3385 L48.8333,208.1719 L48.8683,208.1369 C49.0433,208.1719 49.23,208.1719 49.4167,208.1719 C51.0267,208.1719 52.3333,206.8652 52.3333,205.2552 C52.3333,203.6452 51.0267,202.3385 49.4167,202.3385 M50,203.5052 C50.6417,203.5052 51.1667,204.0302 51.1667,204.6719 C51.1667,205.3135 50.6417,205.8385 50,205.8385 C49.3583,205.8385 48.8333,205.3135 48.8333,204.6719 C48.8333,204.0302 49.3583,203.5052 50,203.5052" fill="#C0C0C0"/><text fill="#000000" font-family="Verdana" font-size="14" lengthAdjust="spacing" textLength="240.8574" x="57.7835" y="211.8701">user_id: integer not null pk unique</text><path d="M47.6667,219.8021 C45.73,219.8021 44.1667,221.3654 44.1667,223.3021 C44.1667,225.2388 45.73,226.8021 47.6667,226.8021 C49.6033,226.8021 51.1667,225.2388 51.1667,223.3021 C51.1667,221.3654 49.6033,219.8021 47.6667,219.8021" fill="#FFFFFF"/><text fill="#000000" font-family="Verdana" font-size="14" lengthAdjust="spacing" textLength="302.709" x="57.7835" y="228.167">card_number: varchar(255) not null unique</text></g><!--class groups--><g class="entity" data-entity="groups" data-source-line="9" data-uid="ent0005" id="entity_groups"><rect fill="#FFFFFF" height="64.5625" rx="2.5" ry="2.5" style="stroke:#000000;stroke-width:1;" width="159.2454" x="656.5" y="393.1094"/><ellipse cx="704.2052" cy="413.2422" fill="#FFA500" rx="9" ry="9" style="stroke:#000000;stroke-width:1;"/><path d="M705.049,419.9922 L702.5959,419.9922 L702.5959,409.7422 L699.4552,409.7422 L699.4552,407.6016 L708.1896,407.6016 L708.1896,409.7422 L705.049,409.7422 L705.049,419.9922 Z " fill="#000000"/><text fill="#000000" font-family="Verdana" font-size="12" font-style="italic" lengthAdjust="spacing" textLength="45.2051" x="727.2702" y="409.248">&#171;table&#187;</text><text fill="#000000" font-family="Verdana" font-size="14" font-weight="bold" lengthAdjust="spacing" textLength="56.335" x="721.7052" y="425.0732">Groups</text><line style="stroke:#000000;stroke-width:1;" x1="657.5" x2="814.7454" y1="433.375" y2="433.375"/><path d="M669.9167,440.8385 C668.3067,440.8385 667,442.1452 667,443.7552 C667,443.9419 667,444.1285 667.035,444.3035 L663.5,447.8385 L663.5,450.1719 L667,450.1719 L667,447.8385 L669.3333,447.8385 L669.3333,446.6719 L669.3683,446.6369 C669.5433,446.6719 669.73,446.6719 669.9167,446.6719 C671.5267,446.6719 672.8333,445.3652 672.8333,443.7552 C672.8333,442.1452 671.5267,440.8385 669.9167,440.8385 M670.5,442.0052 C671.1417,442.0052 671.6667,442.5302 671.6667,443.1719 C671.6667,443.8135 671.1417,444.3385 670.5,444.3385 C669.8583,444.3385 669.3333,443.8135 669.3333,443.1719 C669.3333,442.5302 669.8583,442.0052 670.5,442.0052" fill="#DAA520"/><text fill="#000000" font-family="Verdana" font-size="14" lengthAdjust="spacing" textLength="4.4502" x="673.8333" y="450.3701">&#160;</text><text fill="#000000" font-family="Verdana" font-size="14" font-weight="bold" lengthAdjust="spacing" textLength="14.8203" x="678.2835" y="450.3701">id</text><text fill="#000000" font-family="Verdana" font-size="14" lengthAdjust="spacing" textLength="116.6416" x="693.1038" y="450.3701">: integer not null</text></g><!--class group_user_map--><g class="entity" data-entity="group_user_map" data-source-line="9" data-uid="ent0006" id="entity_group_user_map"><rect fill="#FFFFFF" height="80.8594" rx="2.5" ry="2.5" style="stroke:#000000;stroke-width:1;" width="205.1693" x="417.5" y="154.6094"/><ellipse cx="457.5832" cy="174.7422" fill="#FFA500" rx="9" ry="9" style="stroke:#000000;stroke-width:1;"/><path d="M458.4269,181.4922 L455.9738,181.4922 L455.9738,171.2422 L452.8332,171.2422 L452.8332,169.1016 L461.5675,169.1016 L461.5675,171.2422 L458.4269,171.2422 L458.4269,181.4922 Z " fill="#000000"/><text fill="#000000" font-family="Verdana" font-size="12" font-style="italic" lengthAdjust="spacing" textLength="45.2051" x="511.2321" y="170.748">&#171;table&#187;</text><text fill="#000000" font-family="Verdana" font-size="14" font-weight="bold" lengthAdjust="spacing" textLength="117.5029" x="475.0832" y="186.5732">GroupUserMap</text><line style="stroke:#000000;stroke-width:1;" x1="418.5" x2="621.6693" y1="194.875" y2="194.875"/><path d="M430.9167,202.3385 C429.3067,202.3385 428,203.6452 428,205.2552 C428,205.4419 428,205.6285 428.035,205.8035 L424.5,209.3385 L424.5,211.6719 L428,211.6719 L428,209.3385 L430.3333,209.3385 L430.3333,208.1719 L430.3683,208.1369 C430.5433,208.1719 430.73,208.1719 430.9167,208.1719 C432.5267,208.1719 433.8333,206.8652 433.8333,205.2552 C433.8333,203.6452 432.5267,202.3385 430.9167,202.3385 M431.5,203.5052 C432.1417,203.5052 432.6667,204.0302 432.6667,204.6719 C432.6667,205.3135 432.1417,205.8385 431.5,205.8385 C430.8583,205.8385 430.3333,205.3135 430.3333,204.6719 C430.3333,204.0302 430.8583,203.5052 431.5,203.5052" fill="#C0C0C0"/><text fill="#000000" font-family="Verdana" font-size="14" lengthAdjust="spacing" textLength="177.3857" x="439.2835" y="211.8701">group_id: integer not null</text><path d="M430.9167,218.6354 C429.3067,218.6354 428,219.9421 428,221.5521 C428,221.7388 428,221.9254 428.035,222.1004 L424.5,225.6354 L424.5,227.9688 L428,227.9688 L428,225.6354 L430.3333,225.6354 L430.3333,224.4688 L430.3683,224.4338 C430.5433,224.4688 430.73,224.4688 430.9167,224.4688 C432.5267,224.4688 433.8333,223.1621 433.8333,221.5521 C433.8333,219.9421 432.5267,218.6354 430.9167,218.6354 M431.5,219.8021 C432.1417,219.8021 432.6667,220.3271 432.6667,220.9688 C432.6667,221.6104 432.1417,222.1354 431.5,222.1354 C430.8583,222.1354 430.3333,221.6104 430.3333,220.9688 C430.3333,220.3271 430.8583,219.8021 431.5,219.8021" fill="#C0C0C0"/><text fill="#000000" font-family="Verdana" font-size="14" lengthAdjust="spacing" textLength="166.9541" x="439.2835" y="228.167">user_id: integer not null</text></g><!--class transactions--><g class="entity" data-entity="transactions" data-source-line="9" data-uid="ent0007" id="entity_transactions"><rect fill="#FFFFFF" height="194.9375" rx="2.5" ry="2.5" style="stroke:#000000;stroke-width:1;" width="312.6097" x="674" y="97.6094"/><ellipse cx="775.8766" cy="117.7422" fill="#FFA500" rx="9" ry="9" style="stroke:#000000;stroke-width:1;"/><path d="M776.7204,124.4922 L774.2673,124.4922 L774.2673,114.2422 L771.1266,114.2422 L771.1266,112.1016 L779.861,112.1016 L779.861,114.2422 L776.7204,114.2422 L776.7204,124.4922 Z " fill="#000000"/><text fill="#000000" font-family="Verdana" font-size="12" font-style="italic" lengthAdjust="spacing" textLength="45.2051" x="821.4523" y="113.748">&#171;table&#187;</text><text fill="#000000" font-family="Verdana" font-size="14" font-weight="bold" lengthAdjust="spacing" textLength="101.3564" x="793.3766" y="129.5732">Transactions</text><line style="stroke:#000000;stroke-width:1;" x1="675" x2="985.6097" y1="137.875" y2="137.875"/><path d="M687.4167,145.3385 C685.8067,145.3385 684.5,146.6452 684.5,148.2552 C684.5,148.4419 684.5,148.6285 684.535,148.8035 L681,152.3385 L681,154.6719 L684.5,154.6719 L684.5,152.3385 L686.8333,152.3385 L686.8333,151.1719 L686.8683,151.1369 C687.0433,151.1719 687.23,151.1719 687.4167,151.1719 C689.0267,151.1719 690.3333,149.8652 690.3333,148.2552 C690.3333,146.6452 689.0267,145.3385 687.4167,145.3385 M688,146.5052 C688.6417,146.5052 689.1667,147.0302 689.1667,147.6719 C689.1667,148.3135 688.6417,148.8385 688,148.8385 C687.3583,148.8385 686.8333,148.3135 686.8333,147.6719 C686.8333,147.0302 687.3583,146.5052 688,146.5052" fill="#DAA520"/><text fill="#000000" font-family="Verdana" font-size="14" lengthAdjust="spacing" textLength="4.4502" x="691.3333" y="154.8701">&#160;</text><text fill="#000000" font-family="Verdana" font-size="14" font-weight="bold" lengthAdjust="spacing" textLength="14.8203" x="695.7835" y="154.8701">id</text><text fill="#000000" font-family="Verdana" font-size="14" lengthAdjust="spacing" textLength="116.6416" x="710.6038" y="154.8701">: integer not null</text><path d="M687.4167,161.6354 C685.8067,161.6354 684.5,162.9421 684.5,164.5521 C684.5,164.7388 684.5,164.9254 684.535,165.1004 L681,168.6354 L681,170.9688 L684.5,170.9688 L684.5,168.6354 L686.8333,168.6354 L686.8333,167.4688 L686.8683,167.4338 C687.0433,167.4688 687.23,167.4688 687.4167,167.4688 C689.0267,167.4688 690.3333,166.1621 690.3333,164.5521 C690.3333,162.9421 689.0267,161.6354 687.4167,161.6354 M688,162.8021 C688.6417,162.8021 689.1667,163.3271 689.1667,163.9688 C689.1667,164.6104 688.6417,165.1354 688,165.1354 C687.3583,165.1354 686.8333,164.6104 686.8333,163.9688 C686.8333,163.3271 687.3583,162.8021 688,162.8021" fill="#C0C0C0"/><text fill="#000000" font-family="Verdana" font-size="14" lengthAdjust="spacing" textLength="114.7344" x="695.7835" y="171.167">from_id: not null</text><path d="M687.4167,177.9323 C685.8067,177.9323 684.5,179.239 684.5,180.849 C684.5,181.0356 684.5,181.2223 684.535,181.3973 L681,184.9323 L681,187.2656 L684.5,187.2656 L684.5,184.9323 L686.8333,184.9323 L686.8333,183.7656 L686.8683,183.7306 C687.0433,183.7656 687.23,183.7656 687.4167,183.7656 C689.0267,183.7656 690.3333,182.459 690.3333,180.849 C690.3333,179.239 689.0267,177.9323 687.4167,177.9323 M688,179.099 C688.6417,179.099 689.1667,179.624 689.1667,180.2656 C689.1667,180.9073 688.6417,181.4323 688,181.4323 C687.3583,181.4323 686.8333,180.9073 686.8333,180.2656 C686.8333,179.624 687.3583,179.099 688,179.099" fill="#C0C0C0"/><text fill="#000000" font-family="Verdana" font-size="14" lengthAdjust="spacing" textLength="95.9014" x="695.7835" y="187.4639">to_id: not null</text><path d="M685.6667,195.3958 C683.73,195.3958 682.1667,196.9592 682.1667,198.8958 C682.1667,200.8325 683.73,202.3958 685.6667,202.3958 C687.6033,202.3958 689.1667,200.8325 689.1667,198.8958 C689.1667,196.9592 687.6033,195.3958 685.6667,195.3958" fill="#FFFFFF"/><text fill="#000000" font-family="Verdana" font-size="14" lengthAdjust="spacing" textLength="284.8262" x="695.7835" y="203.7607">is_undone: boolean not null default false</text><path d="M685.6667,211.6927 C683.73,211.6927 682.1667,213.256 682.1667,215.1927 C682.1667,217.1294 683.73,218.6927 685.6667,218.6927 C687.6033,218.6927 689.1667,217.1294 689.1667,215.1927 C689.1667,213.256 687.6033,211.6927 685.6667,211.6927" fill="#FFFFFF"/><text fill="#000000" font-family="Verdana" font-size="14" lengthAdjust="spacing" textLength="138.1611" x="695.7835" y="220.0576">t_type: text not null</text><path d="M685.6667,227.9896 C683.73,227.9896 682.1667,229.5529 682.1667,231.4896 C682.1667,233.4262 683.73,234.9896 685.6667,234.9896 C687.6033,234.9896 689.1667,233.4262 689.1667,231.4896 C689.1667,229.5529 687.6033,227.9896 685.6667,227.9896" fill="#FFFFFF"/><text fill="#000000" font-family="Verdana" font-size="14" lengthAdjust="spacing" textLength="141.5859" x="695.7835" y="236.3545">t_type_data: integer</text><path d="M685.6667,244.2865 C683.73,244.2865 682.1667,245.8498 682.1667,247.7865 C682.1667,249.7231 683.73,251.2865 685.6667,251.2865 C687.6033,251.2865 689.1667,249.7231 689.1667,247.7865 C689.1667,245.8498 687.6033,244.2865 685.6667,244.2865" fill="#FFFFFF"/><text fill="#000000" font-family="Verdana" font-size="14" lengthAdjust="spacing" textLength="164.6162" x="695.7835" y="252.6514">money: integer not null</text><path d="M685.6667,260.5833 C683.73,260.5833 682.1667,262.1467 682.1667,264.0833 C682.1667,266.02 683.73,267.5833 685.6667,267.5833 C687.6033,267.5833 689.1667,266.02 689.1667,264.0833 C689.1667,262.1467 687.6033,260.5833 685.6667,260.5833" fill="#FFFFFF"/><text fill="#000000" font-family="Verdana" font-size="14" lengthAdjust="spacing" textLength="178.1787" x="695.7835" y="268.9482">description: varchar(255)</text><path d="M685.6667,276.8802 C683.73,276.8802 682.1667,278.4435 682.1667,280.3802 C682.1667,282.3169 683.73,283.8802 685.6667,283.8802 C687.6033,283.8802 689.1667,282.3169 689.1667,280.3802 C689.1667,278.4435 687.6033,276.8802 685.6667,276.8802" fill="#FFFFFF"/><text fill="#000000" font-family="Verdana" font-size="14" lengthAdjust="spacing" textLength="173.6055" x="695.7835" y="285.2451">timestamp: date not null</text></g><!--class articles--><g class="entity" data-entity="articles" data-source-line="9" data-uid="ent0008" id="entity_articles"><rect fill="#FFFFFF" height="80.8594" rx="2.5" ry="2.5" style="stroke:#000000;stroke-width:1;" width="214.3431" x="1449" y="385.1094"/><ellipse cx="1522.3434" cy="405.2422" fill="#FFA500" rx="9" ry="9" style="stroke:#000000;stroke-width:1;"/><path d="M1523.1872,411.9922 L1520.734,411.9922 L1520.734,401.7422 L1517.5934,401.7422 L1517.5934,399.6016 L1526.3278,399.6016 L1526.3278,401.7422 L1523.1872,401.7422 L1523.1872,411.9922 Z " fill="#000000"/><text fill="#000000" font-family="Verdana" font-size="12" font-style="italic" lengthAdjust="spacing" textLength="45.2051" x="1547.319" y="401.248">&#171;table&#187;</text><text fill="#000000" font-family="Verdana" font-size="14" font-weight="bold" lengthAdjust="spacing" textLength="60.1563" x="1539.8434" y="417.0732">Articles</text><line style="stroke:#000000;stroke-width:1;" x1="1450" x2="1662.3431" y1="425.375" y2="425.375"/><path d="M1462.4167,432.8385 C1460.8067,432.8385 1459.5,434.1452 1459.5,435.7552 C1459.5,435.9419 1459.5,436.1285 1459.535,436.3035 L1456,439.8385 L1456,442.1719 L1459.5,442.1719 L1459.5,439.8385 L1461.8333,439.8385 L1461.8333,438.6719 L1461.8683,438.6369 C1462.0433,438.6719 1462.23,438.6719 1462.4167,438.6719 C1464.0267,438.6719 1465.3333,437.3652 1465.3333,435.7552 C1465.3333,434.1452 1464.0267,432.8385 1462.4167,432.8385 M1463,434.0052 C1463.6417,434.0052 1464.1667,434.5302 1464.1667,435.1719 C1464.1667,435.8135 1463.6417,436.3385 1463,436.3385 C1462.3583,436.3385 1461.8333,435.8135 1461.8333,435.1719 C1461.8333,434.5302 1462.3583,434.0052 1463,434.0052" fill="#DAA520"/><text fill="#000000" font-family="Verdana" font-size="14" lengthAdjust="spacing" textLength="4.4502" x="1466.3333" y="442.3701">&#160;</text><text fill="#000000" font-family="Verdana" font-size="14" font-weight="bold" lengthAdjust="spacing" textLength="14.8203" x="1470.7835" y="442.3701">id</text><text fill="#000000" font-family="Verdana" font-size="14" lengthAdjust="spacing" textLength="116.6416" x="1485.6038" y="442.3701">: integer not null</text><path d="M1460.6667,450.3021 C1458.73,450.3021 1457.1667,451.8654 1457.1667,453.8021 C1457.1667,455.7388 1458.73,457.3021 1460.6667,457.3021 C1462.6033,457.3021 1464.1667,455.7388 1464.1667,453.8021 C1464.1667,451.8654 1462.6033,450.3021 1460.6667,450.3021" fill="#FFFFFF"/><text fill="#000000" font-family="Verdana" font-size="14" lengthAdjust="spacing" textLength="186.5596" x="1470.7835" y="458.667">name: text not null unique</text></g><!--class article_barcodes--><g class="entity" data-entity="article_barcodes" data-source-line="9" data-uid="ent0009" id="entity_article_barcodes"><rect fill="#FFFFFF" height="80.8594" rx="2.5" ry="2.5" style="stroke:#000000;stroke-width:1;" width="306.1771" x="1296" y="154.6094"/><ellipse cx="1383.0324" cy="174.7422" fill="#FFA500" rx="9" ry="9" style="stroke:#000000;stroke-width:1;"/><path d="M1383.8761,181.4922 L1381.423,181.4922 L1381.423,171.2422 L1378.2824,171.2422 L1378.2824,169.1016 L1387.0168,169.1016 L1387.0168,171.2422 L1383.8761,171.2422 L1383.8761,181.4922 Z " fill="#000000"/><text fill="#000000" font-family="Verdana" font-size="12" font-style="italic" lengthAdjust="spacing" textLength="45.2051" x="1440.236" y="170.748">&#171;table&#187;</text><text fill="#000000" font-family="Verdana" font-size="14" font-weight="bold" lengthAdjust="spacing" textLength="124.6123" x="1400.5324" y="186.5732">ArticleBarcodes</text><line style="stroke:#000000;stroke-width:1;" x1="1297" x2="1601.1771" y1="194.875" y2="194.875"/><path d="M1309.4167,202.3385 C1307.8067,202.3385 1306.5,203.6452 1306.5,205.2552 C1306.5,205.4419 1306.5,205.6285 1306.535,205.8035 L1303,209.3385 L1303,211.6719 L1306.5,211.6719 L1306.5,209.3385 L1308.8333,209.3385 L1308.8333,208.1719 L1308.8683,208.1369 C1309.0433,208.1719 1309.23,208.1719 1309.4167,208.1719 C1311.0267,208.1719 1312.3333,206.8652 1312.3333,205.2552 C1312.3333,203.6452 1311.0267,202.3385 1309.4167,202.3385 M1310,203.5052 C1310.6417,203.5052 1311.1667,204.0302 1311.1667,204.6719 C1311.1667,205.3135 1310.6417,205.8385 1310,205.8385 C1309.3583,205.8385 1308.8333,205.3135 1308.8333,204.6719 C1308.8333,204.0302 1309.3583,203.5052 1310,203.5052" fill="#DAA520"/><text fill="#000000" font-family="Verdana" font-size="14" lengthAdjust="spacing" textLength="4.4502" x="1313.3333" y="211.8701">&#160;</text><text fill="#000000" font-family="Verdana" font-size="14" font-weight="bold" lengthAdjust="spacing" textLength="131.5371" x="1317.7835" y="211.8701">barcode_content</text><text fill="#000000" font-family="Verdana" font-size="14" lengthAdjust="spacing" textLength="146.8564" x="1449.3206" y="211.8701">: text not null unique</text><path d="M1309.4167,218.6354 C1307.8067,218.6354 1306.5,219.9421 1306.5,221.5521 C1306.5,221.7388 1306.5,221.9254 1306.535,222.1004 L1303,225.6354 L1303,227.9688 L1306.5,227.9688 L1306.5,225.6354 L1308.8333,225.6354 L1308.8333,224.4688 L1308.8683,224.4338 C1309.0433,224.4688 1309.23,224.4688 1309.4167,224.4688 C1311.0267,224.4688 1312.3333,223.1621 1312.3333,221.5521 C1312.3333,219.9421 1311.0267,218.6354 1309.4167,218.6354 M1310,219.8021 C1310.6417,219.8021 1311.1667,220.3271 1311.1667,220.9688 C1311.1667,221.6104 1310.6417,222.1354 1310,222.1354 C1309.3583,222.1354 1308.8333,221.6104 1308.8333,220.9688 C1308.8333,220.3271 1309.3583,219.8021 1310,219.8021" fill="#C0C0C0"/><text fill="#000000" font-family="Verdana" font-size="14" lengthAdjust="spacing" textLength="180.332" x="1317.7835" y="228.167">article_id: integer not null</text></g><!--class article_tags--><g class="entity" data-entity="article_tags" data-source-line="9" data-uid="ent0010" id="entity_article_tags"><rect fill="#FFFFFF" height="80.8594" rx="2.5" ry="2.5" style="stroke:#000000;stroke-width:1;" width="161.8841" x="1060.5" y="385.1094"/><ellipse cx="1093.6192" cy="405.2422" fill="#FFA500" rx="9" ry="9" style="stroke:#000000;stroke-width:1;"/><path d="M1094.4629,411.9922 L1092.0098,411.9922 L1092.0098,401.7422 L1088.8692,401.7422 L1088.8692,399.6016 L1097.6036,399.6016 L1097.6036,401.7422 L1094.4629,401.7422 L1094.4629,411.9922 Z " fill="#000000"/><text fill="#000000" font-family="Verdana" font-size="12" font-style="italic" lengthAdjust="spacing" textLength="45.2051" x="1132.075" y="401.248">&#171;table&#187;</text><text fill="#000000" font-family="Verdana" font-size="14" font-weight="bold" lengthAdjust="spacing" textLength="89.1748" x="1110.0901" y="417.0732">ArticleTags</text><line style="stroke:#000000;stroke-width:1;" x1="1061.5" x2="1221.3841" y1="425.375" y2="425.375"/><path d="M1073.9167,432.8385 C1072.3067,432.8385 1071,434.1452 1071,435.7552 C1071,435.9419 1071,436.1285 1071.035,436.3035 L1067.5,439.8385 L1067.5,442.1719 L1071,442.1719 L1071,439.8385 L1073.3333,439.8385 L1073.3333,438.6719 L1073.3683,438.6369 C1073.5433,438.6719 1073.73,438.6719 1073.9167,438.6719 C1075.5267,438.6719 1076.8333,437.3652 1076.8333,435.7552 C1076.8333,434.1452 1075.5267,432.8385 1073.9167,432.8385 M1074.5,434.0052 C1075.1417,434.0052 1075.6667,434.5302 1075.6667,435.1719 C1075.6667,435.8135 1075.1417,436.3385 1074.5,436.3385 C1073.8583,436.3385 1073.3333,435.8135 1073.3333,435.1719 C1073.3333,434.5302 1073.8583,434.0052 1074.5,434.0052" fill="#DAA520"/><text fill="#000000" font-family="Verdana" font-size="14" lengthAdjust="spacing" textLength="4.4502" x="1077.8333" y="442.3701">&#160;</text><text fill="#000000" font-family="Verdana" font-size="14" font-weight="bold" lengthAdjust="spacing" textLength="14.8203" x="1082.2835" y="442.3701">id</text><text fill="#000000" font-family="Verdana" font-size="14" lengthAdjust="spacing" textLength="116.6416" x="1097.1038" y="442.3701">: integer not null</text><path d="M1072.1667,450.3021 C1070.23,450.3021 1068.6667,451.8654 1068.6667,453.8021 C1068.6667,455.7388 1070.23,457.3021 1072.1667,457.3021 C1074.1033,457.3021 1075.6667,455.7388 1075.6667,453.8021 C1075.6667,451.8654 1074.1033,450.3021 1072.1667,450.3021" fill="#FFFFFF"/><text fill="#000000" font-family="Verdana" font-size="14" lengthAdjust="spacing" textLength="134.1006" x="1082.2835" y="458.667">name: text not null</text></g><!--class article_tag_map--><g class="entity" data-entity="article_tag_map" data-source-line="9" data-uid="ent0011" id="entity_article_tag_map"><rect fill="#FFFFFF" height="80.8594" rx="2.5" ry="2.5" style="stroke:#000000;stroke-width:1;" width="208.1156" x="1037" y="154.6094"/><ellipse cx="1080.1867" cy="174.7422" fill="#FFA500" rx="9" ry="9" style="stroke:#000000;stroke-width:1;"/><path d="M1081.0304,181.4922 L1078.5773,181.4922 L1078.5773,171.2422 L1075.4367,171.2422 L1075.4367,169.1016 L1084.1711,169.1016 L1084.1711,171.2422 L1081.0304,171.2422 L1081.0304,181.4922 Z " fill="#000000"/><text fill="#000000" font-family="Verdana" font-size="12" font-style="italic" lengthAdjust="spacing" textLength="45.2051" x="1132.2052" y="170.748">&#171;table&#187;</text><text fill="#000000" font-family="Verdana" font-size="14" font-weight="bold" lengthAdjust="spacing" textLength="114.2422" x="1097.6867" y="186.5732">ArticleTagMap</text><line style="stroke:#000000;stroke-width:1;" x1="1038" x2="1244.1156" y1="194.875" y2="194.875"/><path d="M1050.4167,202.3385 C1048.8067,202.3385 1047.5,203.6452 1047.5,205.2552 C1047.5,205.4419 1047.5,205.6285 1047.535,205.8035 L1044,209.3385 L1044,211.6719 L1047.5,211.6719 L1047.5,209.3385 L1049.8333,209.3385 L1049.8333,208.1719 L1049.8683,208.1369 C1050.0433,208.1719 1050.23,208.1719 1050.4167,208.1719 C1052.0267,208.1719 1053.3333,206.8652 1053.3333,205.2552 C1053.3333,203.6452 1052.0267,202.3385 1050.4167,202.3385 M1051,203.5052 C1051.6417,203.5052 1052.1667,204.0302 1052.1667,204.6719 C1052.1667,205.3135 1051.6417,205.8385 1051,205.8385 C1050.3583,205.8385 1049.8333,205.3135 1049.8333,204.6719 C1049.8333,204.0302 1050.3583,203.5052 1051,203.5052" fill="#C0C0C0"/><text fill="#000000" font-family="Verdana" font-size="14" lengthAdjust="spacing" textLength="159.373" x="1058.7835" y="211.8701">tag_id: integer not null</text><path d="M1050.4167,218.6354 C1048.8067,218.6354 1047.5,219.9421 1047.5,221.5521 C1047.5,221.7388 1047.5,221.9254 1047.535,222.1004 L1044,225.6354 L1044,227.9688 L1047.5,227.9688 L1047.5,225.6354 L1049.8333,225.6354 L1049.8333,224.4688 L1049.8683,224.4338 C1050.0433,224.4688 1050.23,224.4688 1050.4167,224.4688 C1052.0267,224.4688 1053.3333,223.1621 1053.3333,221.5521 C1053.3333,219.9421 1052.0267,218.6354 1050.4167,218.6354 M1051,219.8021 C1051.6417,219.8021 1052.1667,220.3271 1052.1667,220.9688 C1052.1667,221.6104 1051.6417,222.1354 1051,222.1354 C1050.3583,222.1354 1049.8333,221.6104 1049.8333,220.9688 C1049.8333,220.3271 1050.3583,219.8021 1051,219.8021" fill="#C0C0C0"/><text fill="#000000" font-family="Verdana" font-size="14" lengthAdjust="spacing" textLength="180.332" x="1058.7835" y="228.167">article_id: integer not null</text></g><!--class article_sounds--><g class="entity" data-entity="article_sounds" data-source-line="9" data-uid="ent0012" id="entity_article_sounds"><rect fill="#FFFFFF" height="97.1563" rx="2.5" ry="2.5" style="stroke:#000000;stroke-width:1;" width="161.8841" x="1949.5" y="376.6094"/><ellipse cx="1973.3322" cy="396.7422" fill="#FFA500" rx="9" ry="9" style="stroke:#000000;stroke-width:1;"/><path d="M1974.176,403.4922 L1971.7229,403.4922 L1971.7229,393.2422 L1968.5822,393.2422 L1968.5822,391.1016 L1977.3166,391.1016 L1977.3166,393.2422 L1974.176,393.2422 L1974.176,403.4922 Z " fill="#000000"/><text fill="#000000" font-family="Verdana" font-size="12" font-style="italic" lengthAdjust="spacing" textLength="45.2051" x="2020.0431" y="392.748">&#171;table&#187;</text><text fill="#000000" font-family="Verdana" font-size="14" font-weight="bold" lengthAdjust="spacing" textLength="109.8125" x="1987.7394" y="408.5732">ArticleSounds</text><line style="stroke:#000000;stroke-width:1;" x1="1950.5" x2="2110.3841" y1="416.875" y2="416.875"/><path d="M1962.9167,424.3385 C1961.3067,424.3385 1960,425.6452 1960,427.2552 C1960,427.4419 1960,427.6285 1960.035,427.8035 L1956.5,431.3385 L1956.5,433.6719 L1960,433.6719 L1960,431.3385 L1962.3333,431.3385 L1962.3333,430.1719 L1962.3683,430.1369 C1962.5433,430.1719 1962.73,430.1719 1962.9167,430.1719 C1964.5267,430.1719 1965.8333,428.8652 1965.8333,427.2552 C1965.8333,425.6452 1964.5267,424.3385 1962.9167,424.3385 M1963.5,425.5052 C1964.1417,425.5052 1964.6667,426.0302 1964.6667,426.6719 C1964.6667,427.3135 1964.1417,427.8385 1963.5,427.8385 C1962.8583,427.8385 1962.3333,427.3135 1962.3333,426.6719 C1962.3333,426.0302 1962.8583,425.5052 1963.5,425.5052" fill="#DAA520"/><text fill="#000000" font-family="Verdana" font-size="14" lengthAdjust="spacing" textLength="4.4502" x="1966.8333" y="433.8701">&#160;</text><text fill="#000000" font-family="Verdana" font-size="14" font-weight="bold" lengthAdjust="spacing" textLength="14.8203" x="1971.2835" y="433.8701">id</text><text fill="#000000" font-family="Verdana" font-size="14" lengthAdjust="spacing" textLength="116.6416" x="1986.1038" y="433.8701">: integer not null</text><path d="M1961.1667,441.8021 C1959.23,441.8021 1957.6667,443.3654 1957.6667,445.3021 C1957.6667,447.2388 1959.23,448.8021 1961.1667,448.8021 C1963.1033,448.8021 1964.6667,447.2388 1964.6667,445.3021 C1964.6667,443.3654 1963.1033,441.8021 1961.1667,441.8021" fill="#FFFFFF"/><text fill="#000000" font-family="Verdana" font-size="14" lengthAdjust="spacing" textLength="134.1006" x="1971.2835" y="450.167">name: text not null</text><path d="M1961.1667,458.099 C1959.23,458.099 1957.6667,459.6623 1957.6667,461.599 C1957.6667,463.5356 1959.23,465.099 1961.1667,465.099 C1963.1033,465.099 1964.6667,463.5356 1964.6667,461.599 C1964.6667,459.6623 1963.1033,458.099 1961.1667,458.099" fill="#FFFFFF"/><text fill="#000000" font-family="Verdana" font-size="14" lengthAdjust="spacing" textLength="126.2256" x="1971.2835" y="466.4639">path: text not null</text></g><!--class article_sounds_map--><g class="entity" data-entity="article_sounds_map" data-source-line="9" data-uid="ent0013" id="entity_article_sounds_map"><rect fill="#FFFFFF" height="80.8594" rx="2.5" ry="2.5" style="stroke:#000000;stroke-width:1;" width="208.1156" x="1934" y="154.6094"/><ellipse cx="1963.6062" cy="174.7422" fill="#FFA500" rx="9" ry="9" style="stroke:#000000;stroke-width:1;"/><path d="M1964.45,181.4922 L1961.9968,181.4922 L1961.9968,171.2422 L1958.8562,171.2422 L1958.8562,169.1016 L1967.5906,169.1016 L1967.5906,171.2422 L1964.45,171.2422 L1964.45,181.4922 Z " fill="#000000"/><text fill="#000000" font-family="Verdana" font-size="12" font-style="italic" lengthAdjust="spacing" textLength="45.2051" x="2028.3004" y="170.748">&#171;table&#187;</text><text fill="#000000" font-family="Verdana" font-size="14" font-weight="bold" lengthAdjust="spacing" textLength="143.2129" x="1979.2965" y="186.5732">ArticleSoundsMap</text><line style="stroke:#000000;stroke-width:1;" x1="1935" x2="2141.1156" y1="194.875" y2="194.875"/><path d="M1947.4167,202.3385 C1945.8067,202.3385 1944.5,203.6452 1944.5,205.2552 C1944.5,205.4419 1944.5,205.6285 1944.535,205.8035 L1941,209.3385 L1941,211.6719 L1944.5,211.6719 L1944.5,209.3385 L1946.8333,209.3385 L1946.8333,208.1719 L1946.8683,208.1369 C1947.0433,208.1719 1947.23,208.1719 1947.4167,208.1719 C1949.0267,208.1719 1950.3333,206.8652 1950.3333,205.2552 C1950.3333,203.6452 1949.0267,202.3385 1947.4167,202.3385 M1948,203.5052 C1948.6417,203.5052 1949.1667,204.0302 1949.1667,204.6719 C1949.1667,205.3135 1948.6417,205.8385 1948,205.8385 C1947.3583,205.8385 1946.8333,205.3135 1946.8333,204.6719 C1946.8333,204.0302 1947.3583,203.5052 1948,203.5052" fill="#C0C0C0"/><text fill="#000000" font-family="Verdana" font-size="14" lengthAdjust="spacing" textLength="178.9102" x="1955.7835" y="211.8701">sound_id: integer not null</text><path d="M1947.4167,218.6354 C1945.8067,218.6354 1944.5,219.9421 1944.5,221.5521 C1944.5,221.7388 1944.5,221.9254 1944.535,222.1004 L1941,225.6354 L1941,227.9688 L1944.5,227.9688 L1944.5,225.6354 L1946.8333,225.6354 L1946.8333,224.4688 L1946.8683,224.4338 C1947.0433,224.4688 1947.23,224.4688 1947.4167,224.4688 C1949.0267,224.4688 1950.3333,223.1621 1950.3333,221.5521 C1950.3333,219.9421 1949.0267,218.6354 1947.4167,218.6354 M1948,219.8021 C1948.6417,219.8021 1949.1667,220.3271 1949.1667,220.9688 C1949.1667,221.6104 1948.6417,222.1354 1948,222.1354 C1947.3583,222.1354 1946.8333,221.6104 1946.8333,220.9688 C1946.8333,220.3271 1947.3583,219.8021 1948,219.8021" fill="#C0C0C0"/><text fill="#000000" font-family="Verdana" font-size="14" lengthAdjust="spacing" textLength="180.332" x="1955.7835" y="228.167">article_id: integer not null</text></g><!--class article_cost_map--><g class="entity" data-entity="article_cost_map" data-source-line="9" data-uid="ent0014" id="entity_article_cost_map"><rect fill="#FFFFFF" height="97.1563" rx="2.5" ry="2.5" style="stroke:#000000;stroke-width:1;" width="230.2982" x="1653" y="146.1094"/><ellipse cx="1704.3283" cy="166.2422" fill="#FFA500" rx="9" ry="9" style="stroke:#000000;stroke-width:1;"/><path d="M1705.172,172.9922 L1702.7189,172.9922 L1702.7189,162.7422 L1699.5783,162.7422 L1699.5783,160.6016 L1708.3127,160.6016 L1708.3127,162.7422 L1705.172,162.7422 L1705.172,172.9922 Z " fill="#000000"/><text fill="#000000" font-family="Verdana" font-size="12" font-style="italic" lengthAdjust="spacing" textLength="45.2051" x="1759.2965" y="162.248">&#171;table&#187;</text><text fill="#000000" font-family="Verdana" font-size="14" font-weight="bold" lengthAdjust="spacing" textLength="120.1416" x="1721.8283" y="178.0732">ArticleCostMap</text><line style="stroke:#000000;stroke-width:1;" x1="1654" x2="1882.2982" y1="186.375" y2="186.375"/><path d="M1666.4167,193.8385 C1664.8067,193.8385 1663.5,195.1452 1663.5,196.7552 C1663.5,196.9419 1663.5,197.1285 1663.535,197.3035 L1660,200.8385 L1660,203.1719 L1663.5,203.1719 L1663.5,200.8385 L1665.8333,200.8385 L1665.8333,199.6719 L1665.8683,199.6369 C1666.0433,199.6719 1666.23,199.6719 1666.4167,199.6719 C1668.0267,199.6719 1669.3333,198.3652 1669.3333,196.7552 C1669.3333,195.1452 1668.0267,193.8385 1666.4167,193.8385 M1667,195.0052 C1667.6417,195.0052 1668.1667,195.5302 1668.1667,196.1719 C1668.1667,196.8135 1667.6417,197.3385 1667,197.3385 C1666.3583,197.3385 1665.8333,196.8135 1665.8333,196.1719 C1665.8333,195.5302 1666.3583,195.0052 1667,195.0052" fill="#C0C0C0"/><text fill="#000000" font-family="Verdana" font-size="14" lengthAdjust="spacing" textLength="180.332" x="1674.7835" y="203.3701">article_id: integer not null</text><path d="M1664.6667,211.3021 C1662.73,211.3021 1661.1667,212.8654 1661.1667,214.8021 C1661.1667,216.7388 1662.73,218.3021 1664.6667,218.3021 C1666.6033,218.3021 1668.1667,216.7388 1668.1667,214.8021 C1668.1667,212.8654 1666.6033,211.3021 1664.6667,211.3021" fill="#FFFFFF"/><text fill="#000000" font-family="Verdana" font-size="14" lengthAdjust="spacing" textLength="145.6875" x="1674.7835" y="219.667">cost: integer not null</text><path d="M1664.6667,227.599 C1662.73,227.599 1661.1667,229.1623 1661.1667,231.099 C1661.1667,233.0356 1662.73,234.599 1664.6667,234.599 C1666.6033,234.599 1668.1667,233.0356 1668.1667,231.099 C1668.1667,229.1623 1666.6033,227.599 1664.6667,227.599" fill="#FFFFFF"/><text fill="#000000" font-family="Verdana" font-size="14" lengthAdjust="spacing" textLength="202.5146" x="1674.7835" y="235.9639">effective_since: date not null</text></g><!--link user_card_number_map to users--><g class="link" data-entity-1="user_card_number_map" data-entity-2="users" data-source-line="101" data-uid="lnk15" id="link_user_card_number_map_users"><path codeLine="101" d="M367,206.6094 C381.23,206.6094 372.62,226.0094 366,238.6094 C319.29,327.5394 230.12,283.3694 184,372.6094 C172.57,394.7194 158.11,428.6094 183,428.6094" fill="none" id="user_card_number_map-users" style="stroke:#000000;stroke-width:1;"/><text fill="#000000" font-family="Verdana" font-size="13" lengthAdjust="spacing" textLength="52.1333" x="226.32" y="338.6763">FK_User</text></g><!--link group_user_map to groups--><g class="link" data-entity-1="group_user_map" data-entity-2="groups" data-source-line="103" data-uid="lnk16" id="link_group_user_map_groups"><path codeLine="103" d="M623.5,206.6094 C653.77,206.6094 626.63,312.6594 631,342.6094 C637.76,388.9594 608.66,445.1094 655.5,445.1094" fill="none" id="group_user_map-groups" style="stroke:#000000;stroke-width:1;"/><text fill="#000000" font-family="Verdana" font-size="13" lengthAdjust="spacing" textLength="62.3657" x="632" y="338.6763">FK_Group</text></g><!--link group_user_map to users--><g class="link" data-entity-1="group_user_map" data-entity-2="users" data-source-line="104" data-uid="lnk17" id="link_group_user_map_users"><path codeLine="104" d="M416.5,222.6094 C319.14,222.6094 588.36,428.6094 491,428.6094" fill="none" id="group_user_map-users" style="stroke:#000000;stroke-width:1;"/><text fill="#000000" font-family="Verdana" font-size="13" lengthAdjust="spacing" textLength="52.1333" x="467.55" y="338.6763">FK_User</text></g><!--link transactions to groups--><g class="link" data-entity-1="transactions" data-entity-2="groups" data-source-line="106" data-uid="lnk18" id="link_transactions_groups"><path codeLine="106" d="M673,165.6094 C644.11,165.6094 661.36,269.6294 674,295.6094 C688.67,325.7594 705.2,323.8794 733,342.6094 C767.9,366.1294 793.94,352.9594 815.5,389.1094 C828.25,410.4894 841.39,445.1094 816.5,445.1094" fill="none" id="transactions-groups" style="stroke:#000000;stroke-width:1;"/><text fill="#000000" font-family="Verdana" font-size="13" lengthAdjust="spacing" textLength="52.1333" x="734" y="338.6763">FK_User</text></g><!--link transactions to groups--><g class="link" data-entity-1="transactions" data-entity-2="groups" data-source-line="107" data-uid="lnk19" id="link_transactions_groups"><path codeLine="107" d="M987,181.6094 C1012.33,181.6094 996.52,272.5694 986,295.6094 C944.27,386.9794 916.95,445.1094 816.5,445.1094" fill="none" id="transactions-groups-1" style="stroke:#000000;stroke-width:1;"/><text fill="#000000" font-family="Verdana" font-size="13" lengthAdjust="spacing" textLength="52.1333" x="972.84" y="338.6763">FK_User</text></g><!--link article_barcodes to articles--><g class="link" data-entity-1="article_barcodes" data-entity-2="articles" data-source-line="109" data-uid="lnk20" id="link_article_barcodes_articles"><path codeLine="109" d="M1603,222.6094 C1610.12,222.6094 1605.05,232.1694 1602,238.6094 C1562.28,322.6194 1486.84,296.2394 1449,381.1094 C1438.86,403.8494 1423.11,437.1094 1448,437.1094" fill="none" id="article_barcodes-articles" style="stroke:#000000;stroke-width:1;"/><text fill="#000000" font-family="Verdana" font-size="13" lengthAdjust="spacing" textLength="64.2065" x="1496.88" y="338.6763">FK_Article</text></g><!--link article_tag_map to article_tags--><g class="link" data-entity-1="article_tag_map" data-entity-2="article_tags" data-source-line="111" data-uid="lnk21" id="link_article_tag_map_article_tags"><path codeLine="111" d="M1246,206.6094 C1260.23,206.6094 1247.13,224.5394 1245,238.6094 C1239,278.2694 1226.38,285.8594 1221,325.6094 C1219.99,333.0994 1220.94,335.0494 1221,342.6094 C1221.33,384.6094 1264.51,437.1094 1222.5,437.1094" fill="none" id="article_tag_map-article_tags" style="stroke:#000000;stroke-width:1;"/><text fill="#000000" font-family="Verdana" font-size="13" lengthAdjust="spacing" textLength="101.6387" x="1222" y="338.6763">FK_Article_Tags</text></g><!--link article_tag_map to articles--><g class="link" data-entity-1="article_tag_map" data-entity-2="articles" data-source-line="112" data-uid="lnk22" id="link_article_tag_map_articles"><path codeLine="112" d="M1246,222.6094 C1280.29,222.6094 1248.69,269.5594 1271,295.6094 C1289.62,317.3594 1304.64,309.0594 1328,325.6094 C1387.4,367.7094 1375.2,437.1094 1448,437.1094" fill="none" id="article_tag_map-articles" style="stroke:#000000;stroke-width:1;"/><text fill="#000000" font-family="Verdana" font-size="13" lengthAdjust="spacing" textLength="64.2065" x="1346.79" y="338.6763">FK_Article</text></g><!--link article_sounds_map to article_sounds--><g class="link" data-entity-1="article_sounds_map" data-entity-2="article_sounds" data-source-line="114" data-uid="lnk23" id="link_article_sounds_map_article_sounds"><path codeLine="114" d="M1933,206.6094 C1918.77,206.6094 1927.48,225.9594 1934,238.6094 C1945.29,260.4894 2099.36,350.6494 2110.5,372.6094 C2121.77,394.8094 2136.39,428.6094 2111.5,428.6094" fill="none" id="article_sounds_map-article_sounds" style="stroke:#000000;stroke-width:1;"/><text fill="#000000" font-family="Verdana" font-size="13" lengthAdjust="spacing" textLength="118.4155" x="2074.11" y="338.6763">FK_Article_Sounds</text></g><!--link article_sounds_map to articles--><g class="link" data-entity-1="article_sounds_map" data-entity-2="articles" data-source-line="115" data-uid="lnk24" id="link_article_sounds_map_articles"><path codeLine="115" d="M1933,222.6094 C1898.85,222.6094 1930.54,269.0994 1909,295.6094 C1829.7,393.1994 1789.74,437.1094 1664,437.1094" fill="none" id="article_sounds_map-articles" style="stroke:#000000;stroke-width:1;"/><text fill="#000000" font-family="Verdana" font-size="13" lengthAdjust="spacing" textLength="64.2065" x="1884.17" y="338.6763">FK_Article</text></g><!--link article_cost_map to articles--><g class="link" data-entity-1="article_cost_map" data-entity-2="articles" data-source-line="117" data-uid="lnk25" id="link_article_cost_map_articles"><path codeLine="117" d="M1652,198.1094 C1598.82,198.1094 1717.18,437.1094 1664,437.1094" fill="none" id="article_cost_map-articles" style="stroke:#000000;stroke-width:1;"/><text fill="#000000" font-family="Verdana" font-size="13" lengthAdjust="spacing" textLength="64.2065" x="1664.52" y="338.6763">FK_Article</text></g><!--SRC=[jPPjQzim4CTVnvz2zSPe85rXq3Sc1BgoTMLFq6JRIwD8bqH4bbn9pXPAl_jasOuVOiTUwV8ciNJ-tVzETwUScGr4W6AEcV0sZ0A2A3Px587PIAezxonMaW1D5A3NcbXZVFvQu0Wczf4dwx4NOxB5Qq2-M_OHrjaEcaxlWHWirXncC-yC13sWwbY3bnmQL126MHd-T3bp6zFBvQp6HkUB2VgkB1x6o17GQIyx1h__tSdF2Rf-I7245HFMKGhfyHDlCozZRqeabofuTIiv1N4lwMpwPWlxsVJIRSnGrUyfvEe8EMTy1wh9SqQdGDOkYKG1UrmnuFG95T1V6sR0CYEW35ye85BH7hZDdqsyFpUAaGrdsW2Ys9u6re2oQl4zhwWRVxwulxlvzELkllZWJv2loxVyCNhqHdab-3yqgDGWiTywsngbUVKPzSS1OiB06XGIqY2HSEwDaFqKmVc2aQqhHMkwmufii3f_TtKrFjYZHB2711glHLB0lXt_vDMrtM15loNH4jHN71T2Gs9NG-6MmyYkEztEXJs_pAHTFugtxP8gnFvWgY9lbKnYdIfRPxy6vF3e_JJIF3v72Lq8XyX6BgnifuivwWkzxdPXsrbZOfWKJhofFWyjWzJZIiaezzYoQsJxNf5sfiD4K5iEgSrIIWvObFcciC89DsY5kMuUc0dDFdQl6VXZklYPLPWsIYMEuULOiwEWYM9ncgDcZJJTiWYqmL6Ssbddq74Aryemmi6T02v-3yZ-gEp0lFjgIMWjrDpNUwjQqfhBS5cibNsKUi-NGoAj066wtHoEkm0EgS1SpmAlQrfC-bpNCMmKjIMYosFUQnMVBMCaNUqj_sT4F9Usv6inwspbvQAksSJOR8Pb9bFMI4uchYK_RkE_PEX6QjDGGUnIYuO-U7t6MyO0CrYjx9yfjhEXCq6WjOMjwCgL-hRjKWg2V1YZYmlKDDP1O3S2zF5pcCx-Egr-1GH1CVYReEp2AKdkAZb9UgwYwkqG1Fd8xvFZCDqKTpKCOjGWpPaL16KDD6d5I2rvUO6r8_CnOAMvpk-WkGbrH0pJENQQ-c8wouuCWg89kyHcjiToirRlnR-Ovg9_duVy2m00]--></g></svg>